<svg width="616" height="635" fill="none" xmlns="http://www.w3.org/2000/svg"><path d="M233.409 466c128.682 0 233-104.318 233-233 0-128.682-104.318-233-233-233-128.683 0-233 104.318-233 233 0 128.682 104.317 233 233 233z" fill="#F2F2F2"/><path d="M253.333 325.681c20.217-11.111 45.379-8.881 67.161-1.284 21.783 7.597 41.522 20.043 62.676 29.249 64.64 28.131 142.548 23.595 203.487-11.848 5.763 13.406-.42 28.74-7.212 41.656-6.791 12.915-14.532 26.914-11.736 41.236 3.578 18.327 22.793 29.315 30.579 46.288 7.391 16.112 3.424 35.032-2.246 51.827s-13.028 33.715-12.065 51.415c.964 17.7 13.823 36.416 31.549 36.43-26.269 4.082-53.056 8.166-79.309 3.983s-52.369-18.067-64.558-41.693c-6.093-11.808-8.442-25.386-15.439-36.682-11.918-19.24-34.791-28.288-56.372-35.108-21.581-6.819-44.676-13.388-59.871-30.162-14.478-15.982-19.064-38.246-26.734-58.401a186.538 186.538 0 00-64.589-84.229" fill="#F5E5D9"/><path d="M276.757 241.944c-7.097-3.301-15.81-4.383-23.031-1.316-7.222 3.068-12.145 10.932-9.81 17.891 1.059 3.156 3.47 6.259 2.531 9.445-.723 2.453-3.246 4.073-5.723 5.224-2.477 1.151-5.187 2.12-6.978 4.062-1.792 1.942-2.165 5.285.073 6.791.737.496 1.658.731 2.373 1.254a3.77 3.77 0 011.165 4.223 8.898 8.898 0 01-2.851 3.75c-2.541 2.191-5.898 4.699-5.109 7.809a5.481 5.481 0 003.697 3.458c1.763.508 3.592.75 5.426.716l74.967 2.362c2.474.186 4.963.047 7.401-.414a8.752 8.752 0 005.813-3.905c1.436-2.657.493-5.93-1.28-8.412-1.772-2.481-4.282-4.438-6.355-6.717-2.073-2.278-3.769-5.122-3.404-8.067.293-2.358 1.847-4.395 2.963-6.537 1.116-2.142 1.765-4.818.319-6.789-2.037-2.776-6.927-2.525-9.243-5.113-1.747-1.952-1.41-4.763-1.584-7.281-.418-6.057-4.611-11.776-10.58-14.433a20.84 20.84 0 00-18.953 1.291l-1.827.708z" fill="#2F2E41"/><path d="M229.385 622.099l-11.741-3.528 8.019-46.967 17.329 5.207-13.607 45.288z" fill="#A0616A"/><path d="M228.96 634.38l-37.858-11.375.143-.479a15.387 15.387 0 0119.163-10.308h.001l23.123 6.947-4.572 15.215z" fill="#2F2E41"/><path d="M340.182 622.496l-12.26-.001-5.832-47.288 18.094.001-.002 47.288z" fill="#A0616A"/><path d="M343.308 634.38l-39.53-.002v-.5a15.393 15.393 0 014.506-10.879 15.382 15.382 0 0110.88-4.507h.001l24.144.001-.001 15.887zM323.163 586.73a4.501 4.501 0 01-4.441-3.788l-18.203-113.555a3.503 3.503 0 00-6.689-.789l-47.161 113.536a4.52 4.52 0 01-5.579 2.544l-17.034-5.679a4.48 4.48 0 01-2.966-5.26l38.649-171.022a4.518 4.518 0 013.372-3.391l51.832-12.033a4.572 4.572 0 013.708.77c34.13 24.799 31.247 105.821 24.886 193.798a4.502 4.502 0 01-4.295 4.174l-15.881.691c-.066.002-.132.004-.198.004z" fill="#2F2E41"/><path d="M279.532 307.032c13.564 0 24.561-10.997 24.561-24.561 0-13.565-10.997-24.561-24.561-24.561-13.565 0-24.561 10.996-24.561 24.561 0 13.564 10.996 24.561 24.561 24.561z" fill="#A0616A"/><path d="M280.592 409.768a39.906 39.906 0 01-17.024-3.935l-.182-.085-.073-.188-22.03-57.076-.418-9.918a23.756 23.756 0 017.06-17.932 23.763 23.763 0 0118.03-6.808l23.388 1.318a23.788 23.788 0 0122.436 23.61c.608 1.167 4.922 10.292-3.533 18.865-.316 1.952-3.273 22.247 7.887 33.408l.314.313-.274.349c-.178.226-14.511 18.076-35.581 18.079z" fill="#3F3D56"/><path d="M313.434 414.073a10.058 10.058 0 005.277-14.488l23.359-27.043-18.415-2.397-19.359 26.048a10.11 10.11 0 009.138 17.88z" fill="#A0616A"/><path d="M328.038 393.201a4.49 4.49 0 01-2.469-.741l-11.552-7.577a4.49 4.49 0 01-1.399-6.064l8.363-14.052a6.264 6.264 0 00.591-5.099 6.281 6.281 0 00-3.415-3.833l-24.027-10.772a14.32 14.32 0 01-8.113-15.915 14.241 14.241 0 0120.433-9.754l36.452 18.679a19.174 19.174 0 0110.07 20.774 19.177 19.177 0 01-3.265 7.515l-18.02 24.969a4.486 4.486 0 01-3.649 1.87z" fill="#3F3D56"/><path d="M254.405 278.979c7.756-.623 14.196-8.372 13.389-16.111a13.004 13.004 0 003.049 8.744 12.999 12.999 0 008.093 4.501c3.557.392 7.458-.684 10.555 1.111 3.43 1.988 4.527 6.816 8.101 8.533 3.452 1.659 7.837-.604 9.543-4.034 1.706-3.429 1.287-7.55.157-11.21a31.656 31.656 0 00-38.79-21.135 31.653 31.653 0 00-13.9 8.16c-3.261 3.281-5.851 7.462-6.271 12.068-.42 4.607 1.717 9.606 5.855 11.675l.219-2.302z" fill="#2F2E41"/><path d="M197.264 210.944a10.063 10.063 0 015.078 6.827 10.054 10.054 0 01-1.973 8.277l19.158 30.164-18.567-.318-15.347-28.596a10.113 10.113 0 01-1.438-13.352 10.108 10.108 0 0113.089-3.002z" fill="#A0616A"/><path d="M212.707 232.424l24.673 58.301 25.869 43.865a14.18 14.18 0 01.994 12.369 14.194 14.194 0 01-9.114 8.421 14.269 14.269 0 01-16.951-7.569l-49.857-106.533a4.494 4.494 0 012.699-6.191l16.166-5.193a4.479 4.479 0 015.521 2.53z" fill="#3F3D56"/><path d="M444.413 635H.587c-.156 0-.305-.474-.415-1.318-.11-.844-.172-1.989-.172-3.182 0-1.193.062-2.338.172-3.182.11-.844.26-1.318.415-1.318h443.826c.156 0 .305.474.415 1.318.11.844.172 1.989.172 3.182 0 1.193-.062 2.338-.172 3.182-.11.844-.259 1.318-.415 1.318zM284.858 108.212v82a1 1 0 11-2 0v-82a1.003 1.003 0 011-1 1 1 0 011 1zM371.684 177.778L343.4 206.062a1.001 1.001 0 01-1.706-.708c0-.265.105-.519.292-.706l28.284-28.285a.998.998 0 011.091-.218 1.002 1.002 0 01.323 1.633zM196.033 177.778l28.284 28.284a1.003 1.003 0 001.414 0 1 1 0 000-1.414l-28.284-28.285a.998.998 0 00-1.091-.218 1.002 1.002 0 00-.323 1.633z" fill="#CCC"/></svg>