<svg width="679" height="109" fill="none" xmlns="http://www.w3.org/2000/svg"><g clip-path="url(#clip0)"><path fill="#fff" d="M0 0h679v109H0z"/><path d="M23.684 68.37l-.99 12.76h.11l4.29-12.98L52.945 17h4.73l4.07 51.37-.99 12.76h.11l4.4-12.98L88.695 17h9.02l-36.96 78.21h-4.84l-4.18-51.59.66-11.66h-.44l-4.4 11.77-25.74 51.48h-4.84L12.684 17h9.02l1.98 51.37zM124.344 94l6.6-31.35c.44-2.2.807-4.143 1.1-5.83.293-1.76.44-3.3.44-4.62 0-2.713-.55-4.62-1.65-5.72-1.1-1.173-2.823-1.76-5.17-1.76-1.907 0-3.85.513-5.83 1.54-1.98.953-3.887 2.2-5.72 3.74a33.067 33.067 0 00-4.95 5.17c-1.393 1.907-2.457 3.74-3.19 5.5L99.044 94h-8.25l16.28-77h8.25l-6.82 31.46h.44c.953-1.173 2.09-2.383 3.41-3.63 1.393-1.247 2.97-2.383 4.73-3.41 1.76-1.1 3.667-1.98 5.72-2.64 2.053-.733 4.29-1.1 6.71-1.1 3.593 0 6.417.88 8.47 2.64 2.053 1.687 3.08 4.803 3.08 9.35 0 3.08-.477 6.783-1.43 11.11L132.594 94h-8.25zm66.253-21.67a62.075 62.075 0 00-1.21 8.25c-.22 2.787-.33 5.39-.33 7.81v3.19c0 .953.073 1.833.22 2.64h-6.16l-1.54-9.57h-.44c-.88 1.247-1.98 2.53-3.3 3.85a27.335 27.335 0 01-4.18 3.41 20.664 20.664 0 01-4.95 2.42c-1.76.66-3.63.99-5.61.99-8.727 0-13.09-5.683-13.09-17.05 0-4.693.586-9.46 1.76-14.3 1.246-4.84 3.116-9.203 5.61-13.09a32.07 32.07 0 019.79-9.57c4.033-2.493 8.873-3.74 14.52-3.74 2.053 0 4.546.257 7.48.77 3.006.44 5.793 1.063 8.36 1.87l-6.93 32.12zm-24.97 15.95c1.76 0 3.446-.403 5.06-1.21a23.966 23.966 0 004.51-3.19 27.944 27.944 0 003.85-3.96c1.1-1.467 1.98-2.823 2.64-4.07l6.16-29.7c-2.2-1.027-4.987-1.54-8.36-1.54-3.374 0-6.344.99-8.91 2.97-2.567 1.98-4.73 4.583-6.49 7.81-1.76 3.153-3.08 6.747-3.96 10.78a56.613 56.613 0 00-1.32 12.1c0 2.787.55 5.17 1.65 7.15 1.1 1.907 2.823 2.86 5.17 2.86zM206.47 39h8.14l2.31-10.89 8.8-2.53L222.86 39h14.41l-1.65 7.04h-14.3l-6.93 33.22c-.147.88-.293 1.687-.44 2.42a20.19 20.19 0 00-.11 1.98c0 1.76.403 2.97 1.21 3.63.807.66 2.017.99 3.63.99 1.76 0 3.373-.22 4.84-.66 1.467-.44 2.933-1.1 4.4-1.98v6.71c-1.54.88-3.52 1.577-5.94 2.09-2.42.587-4.73.88-6.93.88-6.673 0-10.01-3.043-10.01-9.13 0-1.247.183-2.787.55-4.62l7.48-35.53h-8.25l1.65-7.04z" fill="#A8F26E"/><path d="M299.363 25.14h-22.77L262.073 94h-8.8l14.52-68.86h-22.55l1.65-8.14h54.12l-1.65 8.14zM328.768 94l6.6-31.35c.44-2.2.806-4.143 1.1-5.83.293-1.76.44-3.3.44-4.62 0-2.713-.55-4.62-1.65-5.72-1.1-1.173-2.824-1.76-5.17-1.76-1.907 0-3.85.513-5.83 1.54-1.98.953-3.887 2.2-5.72 3.74a32.975 32.975 0 00-4.95 5.17c-1.394 1.907-2.457 3.74-3.19 5.5L303.468 94h-8.25l16.28-77h8.25l-6.82 31.46h.44c.953-1.173 2.09-2.383 3.41-3.63 1.393-1.247 2.97-2.383 4.73-3.41 1.76-1.1 3.666-1.98 5.72-2.64 2.053-.733 4.29-1.1 6.71-1.1 3.593 0 6.416.88 8.47 2.64 2.053 1.687 3.08 4.803 3.08 9.35 0 3.08-.477 6.783-1.43 11.11L337.018 94h-8.25zm63.502-5.39c-2.566 2.2-5.61 3.887-9.13 5.06-3.446 1.1-6.93 1.65-10.45 1.65-5.866 0-10.303-1.687-13.31-5.06-2.933-3.373-4.4-8.067-4.4-14.08s.844-11.403 2.53-16.17c1.687-4.767 3.887-8.8 6.6-12.1 2.787-3.3 5.904-5.83 9.35-7.59 3.52-1.76 7.114-2.64 10.78-2.64 2.64 0 4.914.367 6.82 1.1 1.98.733 3.594 1.723 4.84 2.97a10.658 10.658 0 012.75 4.18c.587 1.54.88 3.19.88 4.95 0 5.207-2.53 9.313-7.59 12.32-5.06 2.933-12.43 4.4-22.11 4.4h-2.75c-.953-.073-1.943-.147-2.97-.22a44.78 44.78 0 00-.66 3.96c-.146 1.247-.22 2.347-.22 3.3 0 4.033.917 7.333 2.75 9.9 1.834 2.493 4.694 3.74 8.58 3.74 3.227 0 6.16-.513 8.8-1.54 2.714-1.1 4.804-2.237 6.27-3.41l2.64 5.28zm-9.35-43.89c-4.033 0-7.553 1.393-10.56 4.18-2.933 2.713-5.17 6.82-6.71 12.32 2.787 0 5.684-.073 8.69-.22 3.007-.147 5.72-.513 8.14-1.1 2.494-.66 4.547-1.65 6.16-2.97 1.614-1.393 2.42-3.3 2.42-5.72 0-.733-.146-1.467-.44-2.2a4.624 4.624 0 00-1.21-2.09c-.586-.66-1.43-1.173-2.53-1.54-1.026-.44-2.346-.66-3.96-.66z" fill="#F3C95C"/><path d="M418.878 17h43.34l-2.86 13.42h-29.04l-4.07 19.03h26.73l-2.75 13.42h-26.73l-6.6 31.13h-14.3l16.28-77zm58.989 22l.11 9.68h.44c1.613-2.933 3.556-5.427 5.83-7.48 2.346-2.053 5.28-3.08 8.8-3.08 1.54 0 3.373.293 5.5.88l-3.41 11.77a29.89 29.89 0 00-2.09-.55 9.613 9.613 0 00-2.09-.22c-3.007 0-5.794.99-8.36 2.97-2.494 1.907-4.4 4.143-5.72 6.71L469.727 94h-13.53l11.66-55h10.01zm40.565 0l-7.15 33.99c-.44 2.2-.66 4.033-.66 5.5 0 1.467.293 2.603.88 3.41.587.807 1.613 1.21 3.08 1.21 1.247 0 2.493-.293 3.74-.88a20.344 20.344 0 003.74-2.42 27.048 27.048 0 003.19-3.3c1.027-1.247 1.87-2.457 2.53-3.63l7.04-33.88h13.53l-6.93 33c-.367 1.467-.697 3.19-.99 5.17-.22 1.98-.44 4.033-.66 6.16a87.093 87.093 0 00-.44 5.94c-.073 1.907-.073 3.483 0 4.73h-10.89l-.55-9.9h-.44c-1.027 1.393-2.237 2.787-3.63 4.18a27.892 27.892 0 01-4.51 3.63c-1.613 1.1-3.41 1.98-5.39 2.64-1.907.66-3.96.99-6.16.99-3.447 0-6.233-.843-8.36-2.53-2.127-1.76-3.19-4.95-3.19-9.57 0-2.713.367-5.683 1.1-8.91l7.59-35.53h13.53zm44.409 0h13.53l-11.66 55h-13.53l11.66-55zm2.09-15.62c0-2.42.77-4.29 2.31-5.61 1.613-1.32 3.63-1.98 6.05-1.98 2.347 0 4.327.66 5.94 1.98 1.687 1.32 2.53 3.19 2.53 5.61 0 2.347-.843 4.217-2.53 5.61-1.613 1.32-3.593 1.98-5.94 1.98-2.42 0-4.437-.66-6.05-1.98-1.54-1.393-2.31-3.263-2.31-5.61zM583.395 39h7.15l2.2-10.34 14.41-4.07-3.08 14.41h12.87l-2.53 11.33h-12.76l-5.39 24.86c-.44 1.98-.66 3.593-.66 4.84 0 1.613.367 2.713 1.1 3.3.734.587 1.834.88 3.3.88 1.394 0 2.64-.147 3.74-.44 1.174-.293 2.384-.77 3.63-1.43v10.12c-.806.44-1.796.88-2.97 1.32-1.1.367-2.31.66-3.63.88-1.32.293-2.676.513-4.07.66-1.393.147-2.676.22-3.85.22-3.74 0-6.636-.843-8.69-2.53-1.98-1.76-2.97-4.4-2.97-7.92 0-.733.037-1.503.11-2.31.147-.807.294-1.65.44-2.53l6.38-29.92h-7.37l2.64-11.33z" fill="#EF6F47"/><path d="M625.56 71.12c.44-3.96 1.32-7.333 2.64-10.12 1.393-2.86 2.97-5.317 4.73-7.37 1.833-2.127 3.74-3.96 5.72-5.5a100.548 100.548 0 005.5-4.62c1.687-1.467 3.08-2.97 4.18-4.51 1.1-1.54 1.65-3.337 1.65-5.39 0-1.98-.587-3.52-1.76-4.62-1.1-1.1-3.117-1.65-6.05-1.65-2.273 0-4.767.513-7.48 1.54-2.713.953-5.097 2.127-7.15 3.52l-3.41-10.34c3.007-1.833 6.27-3.373 9.79-4.62 3.52-1.32 7.81-1.98 12.87-1.98 6.16 0 10.67 1.32 13.53 3.96 2.86 2.567 4.29 6.05 4.29 10.45 0 3.887-.587 7.187-1.76 9.9-1.173 2.64-2.677 4.987-4.51 7.04a42.351 42.351 0 01-6.05 5.39 82.403 82.403 0 00-6.38 4.95 37.896 37.896 0 00-5.39 5.94c-1.613 2.2-2.713 4.877-3.3 8.03h-11.66zm-4.95 15.62c0-2.567.807-4.583 2.42-6.05 1.613-1.54 3.74-2.31 6.38-2.31 2.713 0 4.877.77 6.49 2.31 1.613 1.467 2.42 3.483 2.42 6.05 0 2.567-.807 4.62-2.42 6.16s-3.777 2.31-6.49 2.31c-2.64 0-4.767-.77-6.38-2.31-1.613-1.54-2.42-3.593-2.42-6.16z" fill="#FB6738"/></g><defs><clipPath id="clip0"><path fill="#fff" d="M0 0h679v109H0z"/></clipPath></defs></svg>