<?xml version="1.0" encoding="iso-8859-1"?>
<!-- Generator: Adobe Illustrator 18.0.0, SVG Export Plug-In . SVG Version: 6.00 Build 0)  -->
<!DOCTYPE svg PUBLIC "-//W3C//DTD SVG 1.1//EN" "http://www.w3.org/Graphics/SVG/1.1/DTD/svg11.dtd">
<svg version="1.1" id="Capa_1" xmlns="http://www.w3.org/2000/svg" xmlns:xlink="http://www.w3.org/1999/xlink" x="0px" y="0px"
	 width="20" height="20" viewBox="0 0 481.444 481.444" style="enable-background:new 0 0 481.444 481.444;" xml:space="preserve">
<path d="M240.723,0C107.991,0,0,107.993,0,240.723s107.991,240.722,240.723,240.722c132.729,0,240.722-107.992,240.722-240.722
	S373.452,0,240.723,0z M368.287,404.758c-0.039-1.93-0.109-3.866-0.496-5.787l-11.59-58.247
	c-4.598-23.07-22.644-41.093-45.713-45.651l-15.699-3.094c-9.023-1.787-16.093-8.795-17.969-17.802l-2.99-14.416
	c-0.961-4.614,0.724-9.395,4.361-12.401c14.156-11.73,27.148-28.997,34.642-49.382c10.425-1.874,19.921-11.889,22.99-25.676
	c3.797-17.084-3.73-33.288-16.802-36.193c-0.142-0.025-0.282-0.009-0.456-0.025c-3.936-44.366-21.022-77.214-77.852-77.214
	c-55.871,0-73.602,32.84-77.775,77.191c-0.189,0.038-0.377,0.022-0.52,0.047c-13.068,2.905-20.596,19.109-16.802,36.193
	c3.04,13.787,12.55,23.802,22.975,25.676c7.513,20.393,20.487,37.651,34.645,49.39c3.621,2.999,5.307,7.779,4.345,12.386
	l-2.977,14.407c-1.857,9.016-8.943,16.031-17.966,17.818l-15.685,3.094c-23.068,4.559-41.115,22.581-45.712,45.651l-11.591,58.247
	c-0.385,1.921-0.456,3.857-0.496,5.787c-48.894-38.108-80.514-97.387-80.514-164.035c0-114.739,93.341-208.079,208.08-208.079
	c114.738,0,208.079,93.34,208.079,208.079C448.802,307.371,417.181,366.65,368.287,404.758z"/>
<g>
</g>
<g>
</g>
<g>
</g>
<g>
</g>
<g>
</g>
<g>
</g>
<g>
</g>
<g>
</g>
<g>
</g>
<g>
</g>
<g>
</g>
<g>
</g>
<g>
</g>
<g>
</g>
<g>
</g>
</svg>
