<?xml version="1.0" encoding="UTF-8"?><svg id="Camada_2" xmlns="http://www.w3.org/2000/svg" viewBox="0 0 298.63 294.94"><defs><style>.cls-1{fill:#f7b243;}.cls-2{fill:#594d4d;}</style></defs><g id="Camada_1-2"><g><path class="cls-2" d="M.39,75.87c1.97,13.32,20.11-10.35,19.8,4.83-.65,17.19-1.18,35.24-1.61,53.83-.05,31.52-1.58,63.23-1.22,94.27,.03,2.39,.34,4.75,.9,7.07,1.79,7.36,5.16,17.24,12.63,10.76,2.82-55.18,2.79-81.2,2.77-111.48-.02-26.1,.09-52.21-.89-75.22-.14-3.23-2.48-7.59-5.33-9.52C14.48,41.64-2.82,63.2,.39,75.87Z"/><path class="cls-2" d="M298.24,221.23c-1.97-13.32-20.11,10.35-19.8-4.83,.65-17.19,1.18-35.24,1.61-53.83,.05-31.52,1.58-63.23,1.22-94.27-.03-2.39-.34-4.75-.9-7.07-1.79-7.36-5.16-17.24-12.63-10.76-2.82,55.18-2.79,81.2-2.77,111.48,.02,26.1-.09,52.21,.89,75.22,.14,3.23,2.48,7.59,5.33,9.52,12.95,8.77,30.26-12.79,27.04-25.46Z"/><path class="cls-2" d="M223.09,.39c-13.32,1.97,10.35,20.11-4.83,19.8-17.19-.65-35.24-1.18-53.83-1.61-31.52-.05-63.23-1.58-94.27-1.22-2.39,.03-4.75,.34-7.07,.9-7.36,1.79-17.24,5.16-10.76,12.63,55.18,2.82,81.2,2.79,111.48,2.77,26.1-.02,52.21,.09,75.22-.89,3.23-.14,7.59-2.48,9.52-5.33,8.77-12.95-12.79-30.26-25.46-27.04Z"/><path class="cls-2" d="M77.73,294.55c13.32-1.97-10.35-20.11,4.83-19.8,17.19,.65,35.24,1.18,53.83,1.61,31.52,.05,63.23,1.58,94.27,1.22,2.39-.03,4.75-.34,7.07-.9,7.36-1.79,17.24-5.16,10.76-12.63-55.18-2.82-81.2-2.79-111.48-2.77-26.1,.02-52.21-.09-75.22,.89-3.23,.14-7.59,2.48-9.52,5.33-8.77,12.95,12.79,30.26,25.46,27.04Z"/><path class="cls-1" d="M146.41,216.52c-13.14,0-24.92-3.11-35.33-9.34-10.41-6.23-18.65-14.72-24.7-25.47-6.06-10.75-9.09-22.87-9.09-36.35s3.11-25.86,9.34-36.61c6.23-10.75,14.72-19.24,25.47-25.47,10.75-6.23,22.87-9.34,36.35-9.34s25.56,3.12,36.22,9.34c10.66,6.23,19.11,14.72,25.34,25.47,6.23,10.75,9.43,22.95,9.6,36.61l-7.94,6.14c0,12.29-2.86,23.34-8.58,33.15-5.72,9.82-13.48,17.58-23.3,23.29-9.82,5.72-20.95,8.58-33.41,8.58Zm2.05-17.92c9.9,0,18.73-2.3,26.5-6.91,7.76-4.61,13.91-10.96,18.43-19.07,4.52-8.1,6.78-17.19,6.78-27.26s-2.26-19.37-6.78-27.39c-4.52-8.02-10.67-14.38-18.43-19.07-7.77-4.69-16.6-7.04-26.5-7.04s-18.52,2.35-26.37,7.04c-7.85,4.7-14.08,11.05-18.69,19.07-4.61,8.02-6.91,17.15-6.91,27.39s2.3,19.16,6.91,27.26c4.61,8.11,10.84,14.46,18.69,19.07,7.85,4.61,16.64,6.91,26.37,6.91Zm61.18,16.64c-2.9,0-5.29-.9-7.17-2.69-1.88-1.79-2.82-4.14-2.82-7.04v-43.78l4.86-20.22,15.1,3.84v60.16c0,2.9-.94,5.25-2.82,7.04-1.88,1.79-4.27,2.69-7.17,2.69Z"/></g></g></svg>