<?xml version="1.0" encoding="UTF-8"?><svg id="Camada_2" xmlns="http://www.w3.org/2000/svg" viewBox="0 0 820.03 261.69"><defs><style>.cls-1{fill:#594d4d;}.cls-2{fill:#a87373;}</style></defs><g id="Camada_1-2"><g><g><g><path class="cls-2" d="M337.29,114.86c-4.99,0-9.46-1.18-13.41-3.55-3.95-2.36-7.08-5.59-9.38-9.67-2.3-4.08-3.45-8.68-3.45-13.8s1.18-9.82,3.55-13.9c2.36-4.08,5.59-7.3,9.67-9.67,4.08-2.36,8.68-3.55,13.8-3.55s9.7,1.18,13.75,3.55c4.05,2.37,7.26,5.59,9.62,9.67,2.36,4.08,3.58,8.72,3.65,13.9l-3.01,2.33c0,4.66-1.09,8.86-3.26,12.59-2.17,3.73-5.12,6.67-8.84,8.84-3.73,2.17-7.96,3.26-12.68,3.26Zm.78-6.8c3.76,0,7.11-.87,10.06-2.62,2.95-1.75,5.28-4.16,7-7.24,1.72-3.08,2.58-6.53,2.58-10.35s-.86-7.35-2.58-10.4c-1.72-3.05-4.05-5.46-7-7.24-2.95-1.78-6.3-2.67-10.06-2.67s-7.03,.89-10.01,2.67c-2.98,1.78-5.35,4.2-7.09,7.24s-2.62,6.51-2.62,10.4,.87,7.27,2.62,10.35c1.75,3.08,4.11,5.49,7.09,7.24,2.98,1.75,6.32,2.62,10.01,2.62Zm23.23,6.32c-1.1,0-2.01-.34-2.72-1.02-.71-.68-1.07-1.57-1.07-2.67v-16.62l1.85-7.68,5.74,1.46v22.84c0,1.1-.36,1.99-1.07,2.67-.71,.68-1.62,1.02-2.72,1.02Z"/><path class="cls-2" d="M389.19,114.38c-2.59,0-4.91-.71-6.95-2.14-2.04-1.42-3.63-3.4-4.76-5.93-1.14-2.53-1.7-5.44-1.7-8.75V42.16c0-1.1,.34-1.99,1.02-2.67,.68-.68,1.57-1.02,2.67-1.02s1.99,.34,2.67,1.02c.68,.68,1.02,1.57,1.02,2.67v55.4c0,2.79,.57,5.05,1.7,6.8,1.13,1.75,2.57,2.62,4.32,2.62h2.43c.97,0,1.75,.34,2.33,1.02s.87,1.57,.87,2.67-.41,1.99-1.22,2.67c-.81,.68-1.86,1.02-3.16,1.02h-1.26Z"/><path class="cls-2" d="M424.37,114.86c-5.25,0-9.9-1.15-13.95-3.45-4.05-2.3-7.23-5.49-9.52-9.57-2.3-4.08-3.45-8.75-3.45-14s1.08-9.99,3.26-14.04c2.17-4.05,5.17-7.24,8.99-9.57,3.82-2.33,8.23-3.5,13.22-3.5s9.22,1.12,12.88,3.35c3.66,2.24,6.5,5.33,8.5,9.28,2.01,3.95,3.01,8.46,3.01,13.51,0,1.04-.32,1.86-.97,2.48-.65,.62-1.49,.92-2.53,.92h-41.31v-6.22h42.08l-4.18,3.01c.06-3.76-.62-7.13-2.04-10.11-1.43-2.98-3.45-5.31-6.07-7-2.62-1.68-5.75-2.53-9.38-2.53s-6.93,.87-9.72,2.62c-2.79,1.75-4.94,4.16-6.46,7.24-1.52,3.08-2.28,6.59-2.28,10.54s.86,7.45,2.57,10.5c1.72,3.05,4.07,5.44,7.05,7.19,2.98,1.75,6.41,2.62,10.3,2.62,2.33,0,4.68-.4,7.05-1.22,2.36-.81,4.26-1.83,5.69-3.06,.71-.58,1.52-.89,2.43-.92,.91-.03,1.68,.21,2.33,.73,.84,.78,1.28,1.62,1.31,2.53,.03,.91-.34,1.69-1.12,2.33-2.14,1.81-4.86,3.32-8.16,4.52-3.3,1.2-6.48,1.8-9.53,1.8Z"/><path class="cls-2" d="M453.73,114.38c-1.04,0-1.86-.32-2.48-.97-.62-.65-.94-1.43-.97-2.33-.03-.91,.31-1.78,1.02-2.62l17.88-22.35,4.18,5.54-17.01,21.58c-.58,.78-1.46,1.17-2.62,1.17Zm38.49,0c-.78,0-1.41-.13-1.9-.39-.49-.26-.99-.71-1.51-1.36l-16.81-21.38-2.92-2.53-16.91-21.48c-.71-.84-1.05-1.72-1.02-2.62,.03-.91,.34-1.7,.92-2.38,.58-.68,1.42-1.02,2.53-1.02s2.04,.39,2.82,1.17l16.33,20.9,2.62,2.14,18.08,23.13c.84,1.04,1.2,2.01,1.07,2.92-.13,.91-.54,1.62-1.22,2.14-.68,.52-1.38,.78-2.09,.78Zm-15.75-25.27l-4.76-4.86,16.81-21.28c.45-.65,.95-1.1,1.51-1.36,.55-.26,1.12-.39,1.7-.39,1.1,0,1.94,.34,2.53,1.02,.58,.68,.86,1.49,.83,2.43-.03,.94-.37,1.83-1.02,2.67l-17.59,21.77Z"/><path class="cls-2" d="M524.97,114.86c-4.99,0-9.46-1.18-13.41-3.55-3.95-2.36-7.08-5.59-9.38-9.67-2.3-4.08-3.45-8.68-3.45-13.8s1.18-9.82,3.55-13.9c2.36-4.08,5.59-7.3,9.67-9.67,4.08-2.36,8.68-3.55,13.8-3.55s9.7,1.18,13.75,3.55c4.05,2.37,7.26,5.59,9.62,9.67,2.36,4.08,3.58,8.72,3.65,13.9l-3.01,2.33c0,4.66-1.09,8.86-3.26,12.59-2.17,3.73-5.12,6.67-8.84,8.84-3.73,2.17-7.96,3.26-12.68,3.26Zm.78-6.8c3.76,0,7.11-.87,10.06-2.62,2.95-1.75,5.28-4.16,7-7.24,1.72-3.08,2.58-6.53,2.58-10.35s-.86-7.35-2.58-10.4c-1.72-3.05-4.05-5.46-7-7.24-2.95-1.78-6.3-2.67-10.06-2.67s-7.03,.89-10.01,2.67c-2.98,1.78-5.35,4.2-7.09,7.24s-2.62,6.51-2.62,10.4,.87,7.27,2.62,10.35c1.75,3.08,4.11,5.49,7.09,7.24,2.98,1.75,6.32,2.62,10.01,2.62Zm23.23,6.32c-1.1,0-2.01-.34-2.72-1.02-.71-.68-1.07-1.57-1.07-2.67v-16.62l1.85-7.68,5.74,1.46v22.84c0,1.1-.36,1.99-1.07,2.67-.71,.68-1.62,1.02-2.72,1.02Z"/><path class="cls-2" d="M569.19,114.38c-1.17,0-2.09-.34-2.77-1.02-.68-.68-1.02-1.57-1.02-2.67v-45.68c0-1.17,.34-2.09,1.02-2.77,.68-.68,1.6-1.02,2.77-1.02,1.1,0,1.99,.34,2.67,1.02s1.02,1.6,1.02,2.77v45.68c0,1.1-.34,1.99-1.02,2.67s-1.57,1.02-2.67,1.02Zm41.79,0c-1.1,0-2.01-.35-2.72-1.07-.71-.71-1.07-1.59-1.07-2.62v-25.27c0-4.02-.76-7.32-2.28-9.91-1.52-2.59-3.6-4.53-6.22-5.83-2.62-1.3-5.59-1.94-8.89-1.94s-6.04,.62-8.6,1.85c-2.56,1.23-4.58,2.92-6.07,5.05-1.49,2.14-2.24,4.57-2.24,7.29h-5.35c.13-4.08,1.23-7.73,3.3-10.93,2.07-3.21,4.83-5.73,8.26-7.58,3.43-1.85,7.26-2.77,11.47-2.77,4.6,0,8.71,.96,12.34,2.87,3.63,1.91,6.5,4.71,8.6,8.41,2.11,3.69,3.16,8.2,3.16,13.51v25.27c0,1.04-.36,1.91-1.07,2.62-.71,.71-1.59,1.07-2.62,1.07Z"/><path class="cls-2" d="M653.45,114.86c-5.12,0-9.72-1.18-13.8-3.55-4.08-2.36-7.31-5.59-9.67-9.67-2.37-4.08-3.55-8.71-3.55-13.9s1.15-9.72,3.45-13.8c2.3-4.08,5.43-7.3,9.38-9.67,3.95-2.36,8.42-3.55,13.41-3.55,4.34,0,8.26,.92,11.76,2.77,3.5,1.85,6.32,4.29,8.46,7.34v-28.57c0-1.17,.35-2.09,1.07-2.77,.71-.68,1.62-1.02,2.72-1.02s2.01,.34,2.72,1.02c.71,.68,1.07,1.6,1.07,2.77v45.87c-.13,5.05-1.38,9.61-3.74,13.66-2.37,4.05-5.57,7.24-9.62,9.57-4.05,2.33-8.6,3.5-13.66,3.5Zm0-6.8c3.76,0,7.11-.89,10.06-2.67,2.95-1.78,5.28-4.2,7-7.24,1.72-3.05,2.58-6.51,2.58-10.4s-.86-7.27-2.58-10.35c-1.72-3.08-4.05-5.49-7-7.24-2.95-1.75-6.3-2.62-10.06-2.62s-7.03,.87-10.01,2.62c-2.98,1.75-5.35,4.16-7.09,7.24-1.75,3.08-2.62,6.53-2.62,10.35s.87,7.35,2.62,10.4c1.75,3.05,4.11,5.46,7.09,7.24,2.98,1.78,6.32,2.67,10.01,2.67Z"/><path class="cls-2" d="M699.71,114.38c-1.17,0-2.07-.32-2.72-.97s-.97-1.56-.97-2.72v-45.78c0-1.17,.32-2.07,.97-2.72,.65-.65,1.56-.97,2.72-.97s2.07,.32,2.72,.97c.65,.65,.97,1.55,.97,2.72v45.78c0,1.17-.32,2.07-.97,2.72-.65,.65-1.56,.97-2.72,.97Zm-.58-32.75c.19-4.02,1.25-7.61,3.16-10.79,1.91-3.17,4.41-5.67,7.48-7.48,3.08-1.81,6.5-2.72,10.25-2.72,2.98,0,5.28,.42,6.9,1.26,1.62,.84,2.24,2.07,1.85,3.69-.26,.97-.7,1.62-1.31,1.94-.62,.32-1.36,.45-2.24,.39-.87-.06-1.86-.13-2.96-.19-3.63-.32-6.85,.05-9.67,1.12-2.82,1.07-5.05,2.71-6.71,4.91-1.65,2.2-2.48,4.83-2.48,7.87h-4.28Z"/><path class="cls-2" d="M758.13,114.86c-4.99,0-9.46-1.18-13.41-3.55-3.95-2.36-7.08-5.59-9.38-9.67-2.3-4.08-3.45-8.68-3.45-13.8s1.18-9.82,3.55-13.9c2.36-4.08,5.59-7.3,9.67-9.67,4.08-2.36,8.68-3.55,13.8-3.55s9.7,1.18,13.75,3.55c4.05,2.37,7.26,5.59,9.62,9.67,2.36,4.08,3.58,8.72,3.65,13.9l-3.01,2.33c0,4.66-1.09,8.86-3.26,12.59-2.17,3.73-5.12,6.67-8.84,8.84-3.73,2.17-7.96,3.26-12.68,3.26Zm.78-6.8c3.76,0,7.11-.87,10.06-2.62,2.95-1.75,5.28-4.16,7-7.24,1.72-3.08,2.58-6.53,2.58-10.35s-.86-7.35-2.58-10.4c-1.72-3.05-4.05-5.46-7-7.24-2.95-1.78-6.3-2.67-10.06-2.67s-7.03,.89-10.01,2.67c-2.98,1.78-5.35,4.2-7.09,7.24-1.75,3.05-2.62,6.51-2.62,10.4s.87,7.27,2.62,10.35c1.75,3.08,4.11,5.49,7.09,7.24,2.98,1.75,6.32,2.62,10.01,2.62Zm23.23,6.32c-1.1,0-2.01-.34-2.72-1.02-.71-.68-1.07-1.57-1.07-2.67v-16.62l1.85-7.68,5.74,1.46v22.84c0,1.1-.36,1.99-1.07,2.67-.71,.68-1.62,1.02-2.72,1.02Z"/></g><g><path class="cls-2" d="M337.97,201.85c-5.25,0-9.9-1.15-13.95-3.45-4.05-2.3-7.23-5.49-9.52-9.57-2.3-4.08-3.45-8.75-3.45-14s1.08-9.99,3.26-14.04c2.17-4.05,5.17-7.24,8.99-9.57,3.82-2.33,8.23-3.5,13.22-3.5s9.22,1.12,12.88,3.35c3.66,2.24,6.5,5.33,8.5,9.28,2.01,3.95,3.01,8.46,3.01,13.51,0,1.04-.32,1.86-.97,2.48-.65,.62-1.49,.92-2.53,.92h-41.31v-6.22h42.08l-4.18,3.01c.06-3.76-.62-7.13-2.04-10.11-1.43-2.98-3.45-5.31-6.07-7-2.62-1.68-5.75-2.53-9.38-2.53s-6.93,.87-9.72,2.62c-2.79,1.75-4.94,4.16-6.46,7.24-1.52,3.08-2.28,6.59-2.28,10.54s.86,7.45,2.57,10.5c1.72,3.05,4.07,5.44,7.05,7.19,2.98,1.75,6.41,2.62,10.3,2.62,2.33,0,4.68-.4,7.05-1.22,2.36-.81,4.26-1.83,5.69-3.06,.71-.58,1.52-.89,2.43-.92,.91-.03,1.68,.21,2.33,.73,.84,.78,1.28,1.62,1.31,2.53,.03,.91-.34,1.69-1.12,2.33-2.14,1.81-4.86,3.32-8.16,4.52-3.3,1.2-6.48,1.8-9.53,1.8Z"/><path class="cls-2" d="M390.16,201.85c-3.82,0-7.61-.65-11.37-1.94-3.76-1.3-6.8-3.24-9.14-5.83-.71-.78-1-1.65-.87-2.62,.13-.97,.62-1.81,1.46-2.53,.91-.65,1.85-.91,2.82-.78,.97,.13,1.78,.55,2.43,1.26,1.55,1.81,3.61,3.21,6.17,4.18,2.56,.97,5.39,1.46,8.5,1.46,4.79,0,8.26-.83,10.4-2.48,2.14-1.65,3.24-3.64,3.3-5.98,0-2.33-1.1-4.26-3.3-5.78-2.2-1.52-5.83-2.71-10.88-3.55-6.55-1.04-11.34-2.85-14.38-5.44-3.05-2.59-4.57-5.67-4.57-9.23,0-3.3,.87-6.06,2.62-8.26,1.75-2.2,4.08-3.85,7-4.96,2.92-1.1,6.12-1.65,9.62-1.65,4.34,0,8.08,.75,11.23,2.24,3.14,1.49,5.69,3.5,7.63,6.03,.65,.84,.91,1.72,.78,2.62-.13,.91-.65,1.65-1.55,2.24-.78,.45-1.67,.6-2.67,.44-1.01-.16-1.86-.63-2.58-1.41-1.62-1.88-3.5-3.26-5.64-4.13-2.14-.87-4.6-1.31-7.39-1.31-3.56,0-6.42,.73-8.55,2.19-2.14,1.46-3.21,3.29-3.21,5.49,0,1.49,.4,2.79,1.21,3.89,.81,1.1,2.2,2.07,4.18,2.92,1.98,.84,4.75,1.56,8.31,2.14,4.86,.78,8.7,1.93,11.52,3.45s4.83,3.3,6.03,5.35c1.2,2.04,1.8,4.26,1.8,6.66,0,3.05-.89,5.72-2.67,8.02-1.78,2.3-4.24,4.1-7.39,5.39-3.14,1.3-6.75,1.94-10.84,1.94Z"/><path class="cls-2" d="M418.64,156.65c-.97,0-1.78-.31-2.43-.92-.65-.61-.97-1.38-.97-2.28,0-.97,.32-1.76,.97-2.38,.65-.62,1.46-.92,2.43-.92h24.78c.97,0,1.78,.31,2.43,.92,.65,.62,.97,1.41,.97,2.38,0,.91-.32,1.67-.97,2.28-.65,.62-1.46,.92-2.43,.92h-24.78Zm24.2,44.71c-3.44,0-6.5-.81-9.18-2.43-2.69-1.62-4.81-3.84-6.37-6.66-1.55-2.82-2.33-6.04-2.33-9.67v-47.53c0-1.1,.34-2.01,1.02-2.72,.68-.71,1.57-1.07,2.67-1.07s2.01,.36,2.72,1.07c.71,.71,1.07,1.62,1.07,2.72v47.53c0,3.3,.97,6.01,2.92,8.12,1.94,2.11,4.44,3.16,7.48,3.16h2.62c1.03,0,1.88,.36,2.53,1.07,.65,.71,.97,1.62,.97,2.72s-.39,1.99-1.17,2.67c-.78,.68-1.75,1.02-2.92,1.02h-2.04Z"/><path class="cls-2" d="M483.27,201.85c-5.25,0-9.9-1.15-13.95-3.45-4.05-2.3-7.23-5.49-9.52-9.57-2.3-4.08-3.45-8.75-3.45-14s1.08-9.99,3.26-14.04c2.17-4.05,5.17-7.24,8.99-9.57,3.82-2.33,8.23-3.5,13.22-3.5s9.22,1.12,12.88,3.35c3.66,2.24,6.5,5.33,8.5,9.28,2.01,3.95,3.01,8.46,3.01,13.51,0,1.04-.32,1.86-.97,2.48-.65,.62-1.49,.92-2.53,.92h-41.31v-6.22h42.08l-4.18,3.01c.06-3.76-.62-7.13-2.04-10.11-1.43-2.98-3.45-5.31-6.07-7-2.62-1.68-5.75-2.53-9.38-2.53s-6.93,.87-9.72,2.62c-2.79,1.75-4.94,4.16-6.46,7.24-1.52,3.08-2.28,6.59-2.28,10.54s.86,7.45,2.57,10.5c1.72,3.05,4.07,5.44,7.05,7.19,2.98,1.75,6.41,2.62,10.3,2.62,2.33,0,4.68-.4,7.05-1.22,2.36-.81,4.26-1.83,5.69-3.06,.71-.58,1.52-.89,2.43-.92,.91-.03,1.68,.21,2.33,.73,.84,.78,1.28,1.62,1.31,2.53,.03,.91-.34,1.69-1.12,2.33-2.14,1.81-4.86,3.32-8.16,4.52-3.3,1.2-6.48,1.8-9.53,1.8Z"/><path class="cls-2" d="M533.13,201.36c-1.55,0-2.72-.84-3.5-2.53l-21.58-45.78c-.39-.84-.42-1.68-.1-2.53,.32-.84,.97-1.49,1.94-1.94,.91-.45,1.78-.52,2.62-.19,.84,.32,1.49,.91,1.94,1.75l20.7,44.81h-3.98l20.41-44.81c.39-.91,1.05-1.51,1.99-1.8,.94-.29,1.86-.24,2.77,.15,.91,.45,1.52,1.12,1.85,1.99,.32,.87,.29,1.7-.1,2.48l-21.28,45.87c-.78,1.69-2.01,2.53-3.69,2.53Z"/><path class="cls-2" d="M588.92,201.85c-5.25,0-9.9-1.15-13.95-3.45-4.05-2.3-7.23-5.49-9.52-9.57-2.3-4.08-3.45-8.75-3.45-14s1.08-9.99,3.26-14.04c2.17-4.05,5.17-7.24,8.99-9.57,3.82-2.33,8.23-3.5,13.22-3.5s9.22,1.12,12.88,3.35c3.66,2.24,6.5,5.33,8.5,9.28,2.01,3.95,3.01,8.46,3.01,13.51,0,1.04-.32,1.86-.97,2.48-.65,.62-1.49,.92-2.53,.92h-41.31v-6.22h42.08l-4.18,3.01c.06-3.76-.62-7.13-2.04-10.11-1.43-2.98-3.45-5.31-6.07-7-2.62-1.68-5.75-2.53-9.38-2.53s-6.93,.87-9.72,2.62c-2.79,1.75-4.94,4.16-6.46,7.24-1.52,3.08-2.28,6.59-2.28,10.54s.86,7.45,2.57,10.5c1.72,3.05,4.07,5.44,7.05,7.19,2.98,1.75,6.41,2.62,10.3,2.62,2.33,0,4.68-.4,7.05-1.22,2.36-.81,4.26-1.83,5.69-3.06,.71-.58,1.52-.89,2.43-.92,.91-.03,1.68,.21,2.33,.73,.84,.78,1.28,1.62,1.31,2.53,.03,.91-.34,1.69-1.12,2.33-2.14,1.81-4.86,3.32-8.16,4.52-3.3,1.2-6.48,1.8-9.53,1.8Z"/><path class="cls-2" d="M641.11,201.85c-3.82,0-7.61-.65-11.37-1.94-3.76-1.3-6.8-3.24-9.14-5.83-.71-.78-1-1.65-.87-2.62,.13-.97,.62-1.81,1.46-2.53,.91-.65,1.85-.91,2.82-.78,.97,.13,1.78,.55,2.43,1.26,1.55,1.81,3.61,3.21,6.17,4.18,2.56,.97,5.39,1.46,8.5,1.46,4.79,0,8.26-.83,10.4-2.48,2.14-1.65,3.24-3.64,3.3-5.98,0-2.33-1.1-4.26-3.3-5.78-2.2-1.52-5.83-2.71-10.88-3.55-6.55-1.04-11.34-2.85-14.38-5.44-3.05-2.59-4.57-5.67-4.57-9.23,0-3.3,.87-6.06,2.62-8.26,1.75-2.2,4.08-3.85,7-4.96,2.92-1.1,6.12-1.65,9.62-1.65,4.34,0,8.08,.75,11.23,2.24,3.14,1.49,5.69,3.5,7.63,6.03,.65,.84,.91,1.72,.78,2.62-.13,.91-.65,1.65-1.55,2.24-.78,.45-1.67,.6-2.67,.44-1.01-.16-1.86-.63-2.58-1.41-1.62-1.88-3.5-3.26-5.64-4.13-2.14-.87-4.6-1.31-7.39-1.31-3.56,0-6.42,.73-8.55,2.19-2.14,1.46-3.21,3.29-3.21,5.49,0,1.49,.4,2.79,1.21,3.89,.81,1.1,2.2,2.07,4.18,2.92,1.98,.84,4.75,1.56,8.31,2.14,4.86,.78,8.7,1.93,11.52,3.45s4.83,3.3,6.03,5.35c1.2,2.04,1.8,4.26,1.8,6.66,0,3.05-.89,5.72-2.67,8.02-1.78,2.3-4.24,4.1-7.39,5.39-3.14,1.3-6.75,1.94-10.84,1.94Z"/></g><g><path class="cls-1" d="M695.96,167.64c-1.18,0-2.28-.23-3.3-.68-1.02-.45-1.92-1.08-2.7-1.88-.78-.81-1.38-1.73-1.82-2.79-.44-1.05-.65-2.18-.65-3.39s.21-2.31,.64-3.37c.43-1.05,1.03-1.98,1.81-2.78,.78-.8,1.68-1.43,2.7-1.88,1.02-.46,2.13-.69,3.32-.69,1.05,0,2,.15,2.85,.46,.86,.3,1.68,.79,2.48,1.46,.13,.1,.21,.22,.23,.36,.02,.14,0,.27-.05,.39-.06,.12-.15,.21-.26,.27-.03,.12-.1,.2-.22,.26-.12,.06-.25,.08-.4,.07-.15-.01-.3-.08-.45-.2-.57-.49-1.18-.86-1.85-1.1-.67-.24-1.45-.36-2.33-.36-.94,0-1.83,.19-2.65,.57-.82,.38-1.54,.89-2.17,1.55-.62,.65-1.11,1.41-1.47,2.27-.36,.86-.53,1.76-.53,2.72s.18,1.91,.53,2.77c.36,.86,.85,1.61,1.47,2.27,.62,.65,1.35,1.17,2.17,1.54,.82,.37,1.7,.56,2.65,.56,.8,0,1.55-.13,2.27-.39s1.39-.64,2.03-1.13c.17-.14,.36-.2,.56-.17s.37,.12,.51,.26c.15,.14,.22,.33,.22,.57,0,.12-.02,.22-.05,.32-.04,.09-.1,.19-.19,.29-.74,.68-1.57,1.17-2.48,1.45-.91,.28-1.87,.42-2.85,.42Z"/><path class="cls-1" d="M712.87,167.42c-.25,0-.45-.08-.61-.24-.16-.16-.24-.36-.24-.61v-15.31c0-.25,.08-.45,.24-.61s.36-.24,.61-.24h4.07c1.06,0,2,.22,2.83,.66,.83,.44,1.48,1.06,1.95,1.85,.47,.79,.71,1.7,.71,2.73s-.24,1.87-.71,2.64c-.47,.77-1.12,1.37-1.95,1.81-.83,.44-1.77,.65-2.83,.65h-3.22v5.82c0,.25-.08,.45-.24,.61-.16,.16-.36,.24-.61,.24Zm.85-8.3h3.22c.74,0,1.4-.15,1.97-.45,.57-.3,1.03-.71,1.36-1.23,.33-.52,.5-1.12,.5-1.79,0-.71-.17-1.34-.5-1.88-.33-.54-.79-.97-1.36-1.27-.57-.31-1.23-.46-1.97-.46h-3.22v7.08Zm8.26,8.3c-.19,0-.34-.04-.45-.11-.11-.07-.21-.18-.29-.33l-4.18-6.67,1.7-.44,3.9,6.23c.22,.35,.26,.65,.12,.91-.14,.26-.4,.39-.8,.39Z"/><path class="cls-1" d="M740.32,167.64c-1.26,0-2.43-.22-3.49-.65-1.06-.44-1.98-1.05-2.76-1.83-.78-.78-1.38-1.71-1.81-2.77-.43-1.06-.64-2.22-.64-3.49s.21-2.4,.64-3.46c.43-1.06,1.03-1.98,1.81-2.77,.78-.78,1.7-1.39,2.76-1.83s2.22-.65,3.49-.65,2.4,.22,3.46,.65c1.06,.44,1.98,1.05,2.77,1.83s1.39,1.71,1.82,2.77c.43,1.06,.64,2.21,.64,3.46s-.21,2.43-.64,3.49c-.43,1.06-1.04,1.98-1.82,2.77s-1.71,1.39-2.77,1.83c-1.06,.44-2.21,.65-3.46,.65Zm0-1.61c1,0,1.93-.18,2.79-.53,.86-.36,1.6-.86,2.23-1.5,.63-.65,1.12-1.4,1.47-2.27,.35-.86,.52-1.8,.52-2.82s-.17-1.94-.52-2.8c-.35-.86-.84-1.62-1.47-2.27-.63-.65-1.38-1.15-2.23-1.5-.86-.36-1.79-.53-2.79-.53s-1.95,.18-2.81,.53c-.86,.36-1.6,.86-2.23,1.5-.63,.65-1.12,1.4-1.47,2.27-.35,.86-.52,1.8-.52,2.8s.17,1.96,.52,2.82,.84,1.62,1.47,2.27c.63,.65,1.38,1.15,2.23,1.5,.86,.36,1.79,.53,2.81,.53Z"/><path class="cls-1" d="M766.7,167.64c-1.18,0-2.28-.23-3.3-.68-1.02-.45-1.92-1.08-2.7-1.88-.78-.81-1.38-1.73-1.82-2.79-.44-1.05-.65-2.18-.65-3.39s.21-2.31,.64-3.37c.43-1.05,1.03-1.98,1.81-2.78,.78-.8,1.68-1.43,2.7-1.88,1.02-.46,2.13-.69,3.32-.69,1.05,0,2,.15,2.85,.46,.86,.3,1.68,.79,2.48,1.46,.13,.1,.21,.22,.23,.36,.02,.14,0,.27-.05,.39-.06,.12-.15,.21-.26,.27-.03,.12-.1,.2-.22,.26-.12,.06-.25,.08-.4,.07-.15-.01-.3-.08-.45-.2-.57-.49-1.18-.86-1.85-1.1-.67-.24-1.45-.36-2.33-.36-.94,0-1.83,.19-2.65,.57-.82,.38-1.54,.89-2.17,1.55-.62,.65-1.11,1.41-1.47,2.27-.36,.86-.53,1.76-.53,2.72s.18,1.91,.53,2.77c.36,.86,.85,1.61,1.47,2.27,.62,.65,1.35,1.17,2.17,1.54,.82,.37,1.7,.56,2.65,.56,.8,0,1.55-.13,2.27-.39s1.39-.64,2.03-1.13c.17-.14,.36-.2,.56-.17s.37,.12,.51,.26c.15,.14,.22,.33,.22,.57,0,.12-.02,.22-.05,.32-.04,.09-.1,.19-.19,.29-.74,.68-1.57,1.17-2.48,1.45-.91,.28-1.87,.42-2.85,.42Z"/><path class="cls-1" d="M783.6,167.42c-.25,0-.45-.08-.61-.24-.16-.16-.24-.36-.24-.61v-15.31c0-.25,.08-.45,.24-.61s.36-.24,.61-.24,.45,.08,.61,.24,.24,.36,.24,.61v6.8h10.63v-6.8c0-.25,.08-.45,.24-.61s.36-.24,.61-.24,.45,.08,.61,.24c.16,.16,.24,.36,.24,.61v15.31c0,.25-.08,.45-.24,.61s-.36,.24-.61,.24-.45-.08-.61-.24c-.16-.16-.24-.36-.24-.61v-6.99h-10.63v6.99c0,.25-.08,.45-.24,.61-.16,.16-.36,.24-.61,.24Z"/><path class="cls-1" d="M808.96,167.42c-.25,0-.45-.08-.61-.24-.16-.16-.24-.36-.24-.61v-15.31c0-.25,.08-.45,.24-.61s.36-.24,.61-.24h10.22c.23,0,.43,.08,.6,.23,.17,.15,.25,.35,.25,.6,0,.22-.08,.41-.25,.57-.17,.16-.37,.24-.6,.24h-9.37v6.01h6.82c.25,0,.45,.08,.61,.24,.16,.16,.24,.36,.24,.59s-.08,.43-.24,.59-.36,.24-.61,.24h-6.82v6.08h9.37c.23,0,.43,.08,.6,.24,.17,.16,.25,.35,.25,.57,0,.25-.08,.45-.25,.6-.17,.15-.37,.23-.6,.23h-10.22Zm2.74-18.91c-.25,0-.45-.07-.62-.21-.17-.14-.25-.32-.25-.56,0-.31,.14-.55,.41-.74l2.57-1.7c.12-.07,.25-.11,.41-.11,.09,0,.17,.01,.24,.03,.07,.02,.14,.05,.2,.08l2.55,1.7c.28,.19,.41,.44,.41,.74,0,.22-.08,.4-.24,.54-.16,.15-.36,.22-.61,.22-.1,0-.19-.01-.27-.04-.08-.03-.16-.07-.25-.13l-2.03-1.39-2.03,1.39c-.16,.12-.33,.17-.5,.17Z"/></g><g><path class="cls-1" d="M693.55,200.32c-.93,0-1.79-.13-2.58-.4-.79-.27-1.48-.65-2.06-1.14s-1.02-1.07-1.33-1.72c-.12-.23-.12-.45-.01-.64,.11-.2,.29-.33,.56-.4,.2-.06,.4-.04,.6,.07,.2,.1,.34,.25,.45,.46,.22,.42,.54,.8,.96,1.13,.42,.33,.92,.59,1.5,.77,.58,.18,1.22,.27,1.92,.27,.77,0,1.45-.13,2.05-.38,.6-.25,1.06-.62,1.41-1.11,.34-.49,.51-1.08,.51-1.78,0-.89-.33-1.65-.98-2.29-.65-.64-1.68-1.05-3.07-1.22-1.7-.2-3.03-.73-3.99-1.58-.96-.85-1.44-1.89-1.44-3.13,0-.89,.24-1.66,.71-2.31,.47-.65,1.12-1.16,1.95-1.51,.83-.36,1.78-.53,2.85-.53,.8,0,1.53,.13,2.18,.38,.65,.25,1.22,.59,1.71,1,.49,.41,.88,.87,1.19,1.36,.14,.23,.19,.46,.14,.68-.05,.22-.18,.39-.38,.5-.22,.1-.44,.12-.66,.04-.23-.07-.4-.21-.51-.41-.22-.33-.49-.65-.82-.95-.33-.3-.72-.53-1.19-.71s-1.02-.27-1.68-.28c-1.15,0-2.07,.24-2.77,.73-.7,.49-1.05,1.2-1.05,2.12,0,.49,.13,.95,.39,1.36s.69,.77,1.3,1.07c.6,.3,1.41,.52,2.43,.66,1.82,.26,3.16,.82,4.04,1.67,.88,.85,1.32,1.96,1.32,3.32,0,.78-.14,1.48-.42,2.09-.28,.61-.68,1.12-1.2,1.54-.52,.41-1.12,.73-1.81,.95-.69,.22-1.43,.33-2.21,.33Z"/><path class="cls-1" d="M707.77,184.64c-.23,0-.42-.07-.57-.22s-.22-.33-.22-.55c0-.23,.07-.42,.22-.57s.33-.22,.57-.22h12.05c.23,0,.42,.07,.57,.22,.14,.15,.22,.33,.22,.57,0,.22-.07,.4-.22,.55-.15,.14-.33,.22-.57,.22h-12.05Zm6.01,15.47c-.23,0-.43-.08-.6-.25-.17-.17-.25-.37-.25-.6v-16.16h1.7v16.16c0,.23-.08,.43-.24,.6-.16,.17-.36,.25-.61,.25Z"/><path class="cls-1" d="M736.86,200.45c-1.32,0-2.49-.25-3.52-.76s-1.82-1.21-2.4-2.11c-.57-.9-.86-1.93-.86-3.09v-10.54c0-.25,.08-.45,.24-.61s.36-.24,.61-.24,.45,.08,.61,.24,.24,.36,.24,.61v10.54c0,.86,.21,1.61,.64,2.27,.43,.65,1.03,1.17,1.8,1.54,.77,.37,1.65,.56,2.64,.56s1.84-.19,2.59-.56c.76-.37,1.35-.88,1.78-1.54,.43-.65,.64-1.41,.64-2.27v-10.54c0-.25,.08-.45,.24-.61s.36-.24,.61-.24c.26,0,.47,.08,.62,.24,.15,.16,.23,.36,.23,.61v10.54c0,1.16-.29,2.19-.86,3.09-.57,.9-1.36,1.6-2.37,2.11s-2.17,.76-3.47,.76Z"/><path class="cls-1" d="M755.74,200.11c-.25,0-.45-.08-.61-.24-.16-.16-.24-.36-.24-.61v-15.31c0-.25,.08-.45,.24-.61s.36-.24,.61-.24h3.92c1.25,0,2.39,.21,3.43,.62,1.04,.41,1.94,1,2.69,1.76s1.34,1.66,1.75,2.69c.41,1.03,.62,2.17,.62,3.42s-.21,2.39-.62,3.43c-.41,1.04-1,1.94-1.75,2.7s-1.65,1.35-2.69,1.76-2.18,.62-3.43,.62h-3.92Zm.85-1.52h3.07c1.34,0,2.52-.3,3.54-.9s1.83-1.43,2.41-2.48,.87-2.26,.87-3.61-.29-2.55-.87-3.61c-.58-1.05-1.38-1.88-2.41-2.47-1.02-.6-2.2-.89-3.54-.89h-3.07v13.96Z"/><path class="cls-1" d="M779.49,200.11c-.25,0-.45-.08-.61-.24-.16-.16-.24-.36-.24-.61v-15.31c0-.25,.08-.45,.24-.61s.36-.24,.61-.24,.45,.08,.61,.24,.24,.36,.24,.61v15.31c0,.25-.08,.45-.24,.61-.16,.16-.36,.24-.61,.24Z"/><path class="cls-1" d="M799.53,200.32c-1.26,0-2.43-.22-3.49-.65-1.06-.44-1.98-1.05-2.76-1.83-.78-.78-1.38-1.71-1.81-2.77-.43-1.06-.64-2.22-.64-3.49s.21-2.4,.64-3.46c.43-1.06,1.03-1.98,1.81-2.77,.78-.78,1.7-1.39,2.76-1.83s2.22-.65,3.49-.65,2.4,.22,3.46,.65c1.06,.44,1.98,1.05,2.77,1.83s1.39,1.71,1.82,2.77c.43,1.06,.64,2.21,.64,3.46s-.21,2.43-.64,3.49c-.43,1.06-1.04,1.98-1.82,2.77s-1.71,1.39-2.77,1.83c-1.06,.44-2.21,.65-3.46,.65Zm0-1.61c1,0,1.93-.18,2.79-.53,.86-.36,1.6-.86,2.23-1.5,.63-.65,1.12-1.4,1.47-2.27,.35-.86,.52-1.8,.52-2.82s-.17-1.94-.52-2.8c-.35-.86-.84-1.62-1.47-2.27-.63-.65-1.38-1.15-2.23-1.5-.86-.36-1.79-.53-2.79-.53s-1.95,.18-2.81,.53c-.86,.36-1.6,.86-2.23,1.5-.63,.65-1.12,1.4-1.47,2.27-.35,.86-.52,1.8-.52,2.8s.17,1.96,.52,2.82,.84,1.62,1.47,2.27c.63,.65,1.38,1.15,2.23,1.5,.86,.36,1.79,.53,2.81,.53Z"/></g></g><g><path class="cls-1" d="M.35,67.31c1.75,11.82,17.84-9.18,17.57,4.28-.58,15.25-1.05,31.27-1.43,47.76-.04,27.97-1.4,56.1-1.08,83.64,.02,2.12,.3,4.22,.8,6.27,1.59,6.53,4.58,15.3,11.2,9.55,2.51-48.96,2.48-72.05,2.46-98.91-.02-23.16,.08-46.32-.79-66.74-.12-2.87-2.2-6.73-4.73-8.45C12.85,36.94-2.51,56.07,.35,67.31Z"/><path class="cls-1" d="M264.62,196.29c-1.75-11.82-17.84,9.18-17.57-4.28,.58-15.25,1.05-31.27,1.43-47.76,.04-27.97,1.4-56.1,1.08-83.64-.02-2.12-.3-4.22-.8-6.27-1.59-6.53-4.58-15.3-11.2-9.55-2.51,48.96-2.48,72.05-2.46,98.91,.02,23.16-.08,46.32,.79,66.74,.12,2.87,2.2,6.73,4.73,8.45,11.49,7.78,26.85-11.35,23.99-22.59Z"/><path class="cls-1" d="M197.94,.35c-11.82,1.75,9.18,17.84-4.28,17.57-15.25-.58-31.27-1.05-47.76-1.43-27.97-.04-56.1-1.4-83.64-1.08-2.12,.02-4.22,.3-6.27,.8-6.53,1.59-15.3,4.58-9.55,11.2,48.96,2.51,72.05,2.48,98.91,2.46,23.16-.02,46.32,.08,66.74-.79,2.87-.12,6.73-2.2,8.45-4.73,7.78-11.49-11.35-26.85-22.59-23.99Z"/><path class="cls-1" d="M68.97,261.34c11.82-1.75-9.18-17.84,4.28-17.57,15.25,.58,31.27,1.05,47.76,1.43,27.97,.04,56.1,1.4,83.64,1.08,2.12-.02,4.22-.3,6.27-.8,6.53-1.59,15.3-4.58,9.55-11.2-48.96-2.51-72.05-2.48-98.91-2.46-23.16,.02-46.32-.08-66.74,.79-2.87,.12-6.73,2.2-8.45,4.73-7.78,11.49,11.35,26.85,22.59,23.99Z"/><path class="cls-2" d="M129.9,192.11c-11.66,0-22.11-2.76-31.34-8.29-9.24-5.53-16.55-13.06-21.92-22.6-5.38-9.54-8.06-20.29-8.06-32.25s2.76-22.94,8.29-32.48c5.53-9.54,13.06-17.07,22.6-22.6,9.54-5.53,20.29-8.29,32.25-8.29s22.67,2.76,32.14,8.29c9.46,5.53,16.96,13.06,22.49,22.6,5.53,9.54,8.37,20.37,8.52,32.48l-7.04,5.45c0,10.9-2.54,20.71-7.61,29.41-5.08,8.71-11.96,15.6-20.67,20.67-8.71,5.08-18.59,7.61-29.64,7.61Zm1.82-15.9c8.78,0,16.62-2.04,23.51-6.13,6.89-4.09,12.34-9.73,16.35-16.92,4.01-7.19,6.02-15.25,6.02-24.19s-2.01-17.18-6.02-24.3c-4.01-7.12-9.47-12.76-16.35-16.92-6.89-4.16-14.73-6.25-23.51-6.25s-16.43,2.08-23.39,6.25c-6.97,4.17-12.49,9.81-16.58,16.92-4.09,7.12-6.13,15.22-6.13,24.3s2.04,17,6.13,24.19c4.09,7.19,9.61,12.83,16.58,16.92,6.96,4.09,14.76,6.13,23.39,6.13Zm54.29,14.76c-2.58,0-4.7-.8-6.36-2.39-1.67-1.59-2.5-3.67-2.5-6.25v-38.84l4.32-17.94,13.4,3.41v53.38c0,2.58-.83,4.66-2.5,6.25-1.67,1.59-3.79,2.39-6.36,2.39Z"/></g></g></g></svg>