<?xml version="1.0" encoding="UTF-8"?><svg id="Camada_2" xmlns="http://www.w3.org/2000/svg" viewBox="0 0 1775.42 261.69"><defs><style>.cls-1{fill:#f7b243;}.cls-2{fill:#594d4d;}</style></defs><g id="Camada_1-2"><g><path class="cls-2" d="M.35,67.31c1.75,11.82,17.84-9.18,17.57,4.28-.58,15.25-1.05,31.27-1.43,47.76-.04,27.97-1.4,56.1-1.08,83.64,.02,2.12,.3,4.22,.8,6.27,1.59,6.53,4.58,15.3,11.2,9.55,2.51-48.96,2.48-72.05,2.46-98.91-.02-23.16,.08-46.32-.79-66.74-.12-2.87-2.2-6.73-4.73-8.45C12.85,36.94-2.51,56.07,.35,67.31Z"/><path class="cls-2" d="M264.62,196.29c-1.75-11.82-17.84,9.18-17.57-4.28,.58-15.25,1.05-31.27,1.43-47.76,.04-27.97,1.4-56.1,1.08-83.64-.02-2.12-.3-4.22-.8-6.27-1.59-6.53-4.58-15.3-11.2-9.55-2.51,48.96-2.48,72.05-2.46,98.91,.02,23.16-.08,46.32,.79,66.74,.12,2.87,2.2,6.73,4.73,8.45,11.49,7.78,26.85-11.35,23.99-22.59Z"/><path class="cls-2" d="M197.94,.35c-11.82,1.75,9.18,17.84-4.28,17.57-15.25-.58-31.27-1.05-47.76-1.43-27.97-.04-56.1-1.4-83.64-1.08-2.12,.02-4.22,.3-6.27,.8-6.53,1.59-15.3,4.58-9.55,11.2,48.96,2.51,72.05,2.48,98.91,2.46,23.16-.02,46.32,.08,66.74-.79,2.87-.12,6.73-2.2,8.45-4.73,7.78-11.49-11.35-26.85-22.59-23.99Z"/><path class="cls-2" d="M68.97,261.34c11.82-1.75-9.18-17.84,4.28-17.57,15.25,.58,31.27,1.05,47.76,1.43,27.97,.04,56.1,1.4,83.64,1.08,2.12-.02,4.22-.3,6.27-.8,6.53-1.59,15.3-4.58,9.55-11.2-48.96-2.51-72.05-2.48-98.91-2.46-23.16,.02-46.32-.08-66.74,.79-2.87,.12-6.73,2.2-8.45,4.73-7.78,11.49,11.35,26.85,22.59,23.99Z"/><path class="cls-1" d="M129.9,192.11c-11.66,0-22.11-2.76-31.34-8.29-9.24-5.53-16.55-13.06-21.92-22.6-5.38-9.54-8.06-20.29-8.06-32.25s2.76-22.94,8.29-32.48c5.53-9.54,13.06-17.07,22.6-22.6,9.54-5.53,20.29-8.29,32.25-8.29s22.67,2.76,32.14,8.29c9.46,5.53,16.96,13.06,22.49,22.6,5.53,9.54,8.37,20.37,8.52,32.48l-7.04,5.45c0,10.9-2.54,20.71-7.61,29.41-5.08,8.71-11.96,15.6-20.67,20.67-8.71,5.08-18.59,7.61-29.64,7.61Zm1.82-15.9c8.78,0,16.62-2.04,23.51-6.13,6.89-4.09,12.34-9.73,16.35-16.92,4.01-7.19,6.02-15.25,6.02-24.19s-2.01-17.18-6.02-24.3c-4.01-7.12-9.47-12.76-16.35-16.92-6.89-4.16-14.73-6.25-23.51-6.25s-16.43,2.08-23.39,6.25c-6.97,4.17-12.49,9.81-16.58,16.92-4.09,7.12-6.13,15.22-6.13,24.3s2.04,17,6.13,24.19c4.09,7.19,9.61,12.83,16.58,16.92,6.96,4.09,14.76,6.13,23.39,6.13Zm54.29,14.76c-2.58,0-4.7-.8-6.36-2.39-1.67-1.59-2.5-3.67-2.5-6.25v-38.84l4.32-17.94,13.4,3.41v53.38c0,2.58-.83,4.66-2.5,6.25-1.67,1.59-3.79,2.39-6.36,2.39Z"/></g><g><g><path class="cls-2" d="M362.04,246.45c-3.35,0-6.48-.64-9.4-1.92-2.92-1.28-5.48-3.07-7.69-5.37-2.21-2.3-3.94-4.94-5.18-7.94-1.24-3-1.86-6.21-1.86-9.65s.61-6.59,1.83-9.59c1.22-3,2.94-5.63,5.15-7.91,2.21-2.27,4.78-4.07,7.69-5.37,2.92-1.3,6.07-1.96,9.46-1.96,2.98,0,5.69,.44,8.13,1.3,2.44,.87,4.8,2.26,7.07,4.16,.37,.29,.59,.63,.65,1.02,.06,.39,0,.77-.16,1.12-.17,.35-.41,.61-.74,.77-.08,.33-.29,.58-.62,.74-.33,.17-.71,.23-1.15,.19-.44-.04-.86-.23-1.27-.56-1.61-1.41-3.37-2.45-5.27-3.13-1.9-.68-4.12-1.02-6.64-1.02-2.69,0-5.2,.54-7.54,1.61-2.34,1.08-4.4,2.54-6.17,4.4-1.78,1.86-3.17,4.01-4.19,6.45-1.01,2.44-1.52,5.03-1.52,7.76s.51,5.44,1.52,7.88c1.01,2.44,2.41,4.59,4.19,6.45,1.78,1.86,3.84,3.32,6.17,4.37,2.34,1.05,4.85,1.58,7.54,1.58,2.27,0,4.43-.37,6.45-1.12s3.95-1.82,5.77-3.23c.5-.41,1.02-.58,1.58-.5s1.04,.33,1.46,.74c.41,.41,.62,.95,.62,1.61,0,.33-.05,.63-.15,.9-.11,.27-.28,.55-.53,.84-2.11,1.94-4.47,3.32-7.07,4.13-2.6,.81-5.31,1.21-8.13,1.21Z"/><path class="cls-2" d="M410.19,245.83c-.7,0-1.28-.23-1.74-.68-.46-.45-.68-1.03-.68-1.74v-43.62c0-.7,.23-1.28,.68-1.74s1.03-.68,1.74-.68h11.6c3.02,0,5.71,.63,8.07,1.89,2.36,1.26,4.21,3.02,5.55,5.27,1.34,2.25,2.02,4.85,2.02,7.79s-.67,5.32-2.02,7.51c-1.34,2.19-3.2,3.91-5.55,5.15-2.36,1.24-5.05,1.86-8.07,1.86h-9.18v16.57c0,.7-.23,1.28-.68,1.74-.45,.46-1.03,.68-1.74,.68Zm2.42-23.64h9.18c2.11,0,3.98-.42,5.62-1.27,1.63-.85,2.93-2.02,3.88-3.51,.95-1.49,1.43-3.18,1.43-5.09,0-2.03-.48-3.82-1.43-5.37-.95-1.55-2.24-2.76-3.88-3.63-1.64-.87-3.51-1.3-5.62-1.3h-9.18v20.16Zm23.51,23.64c-.54,0-.96-.1-1.27-.31-.31-.21-.59-.52-.84-.93l-11.91-18.98,4.84-1.24,11.11,17.74c.62,.99,.73,1.86,.34,2.6-.39,.74-1.15,1.12-2.27,1.12Z"/><path class="cls-2" d="M488.36,246.45c-3.6,0-6.91-.62-9.93-1.86-3.02-1.24-5.64-2.98-7.85-5.21-2.21-2.23-3.93-4.86-5.15-7.88-1.22-3.02-1.83-6.33-1.83-9.93s.61-6.84,1.83-9.87c1.22-3.02,2.94-5.65,5.15-7.88,2.21-2.23,4.83-3.97,7.85-5.21,3.02-1.24,6.33-1.86,9.93-1.86s6.84,.62,9.87,1.86c3.02,1.24,5.65,2.98,7.88,5.21,2.23,2.23,3.96,4.86,5.18,7.88,1.22,3.02,1.83,6.31,1.83,9.87s-.61,6.91-1.83,9.93c-1.22,3.02-2.95,5.65-5.18,7.88-2.23,2.23-4.86,3.97-7.88,5.21-3.02,1.24-6.31,1.86-9.87,1.86Zm0-4.59c2.85,0,5.5-.5,7.94-1.52,2.44-1.01,4.56-2.44,6.36-4.28,1.8-1.84,3.2-3.99,4.19-6.45,.99-2.46,1.49-5.14,1.49-8.04s-.5-5.51-1.49-7.97c-.99-2.46-2.39-4.61-4.19-6.45-1.8-1.84-3.92-3.27-6.36-4.28-2.44-1.01-5.09-1.52-7.94-1.52s-5.56,.51-8,1.52c-2.44,1.01-4.56,2.44-6.36,4.28-1.8,1.84-3.2,3.99-4.19,6.45-.99,2.46-1.49,5.12-1.49,7.97s.5,5.57,1.49,8.04c.99,2.46,2.39,4.61,4.19,6.45,1.8,1.84,3.92,3.27,6.36,4.28,2.44,1.01,5.11,1.52,8,1.52Z"/><path class="cls-2" d="M563.5,246.45c-3.35,0-6.48-.64-9.4-1.92-2.92-1.28-5.48-3.07-7.69-5.37-2.21-2.3-3.94-4.94-5.18-7.94-1.24-3-1.86-6.21-1.86-9.65s.61-6.59,1.83-9.59c1.22-3,2.94-5.63,5.15-7.91,2.21-2.27,4.78-4.07,7.69-5.37,2.92-1.3,6.07-1.96,9.46-1.96,2.98,0,5.69,.44,8.13,1.3,2.44,.87,4.8,2.26,7.07,4.16,.37,.29,.59,.63,.65,1.02,.06,.39,0,.77-.16,1.12-.17,.35-.41,.61-.74,.77-.08,.33-.29,.58-.62,.74-.33,.17-.71,.23-1.15,.19-.44-.04-.86-.23-1.27-.56-1.61-1.41-3.37-2.45-5.27-3.13-1.9-.68-4.12-1.02-6.64-1.02-2.69,0-5.2,.54-7.54,1.61-2.34,1.08-4.4,2.54-6.17,4.4-1.78,1.86-3.17,4.01-4.19,6.45-1.01,2.44-1.52,5.03-1.52,7.76s.51,5.44,1.52,7.88c1.01,2.44,2.41,4.59,4.19,6.45,1.78,1.86,3.84,3.32,6.17,4.37,2.34,1.05,4.85,1.58,7.54,1.58,2.27,0,4.43-.37,6.45-1.12s3.95-1.82,5.77-3.23c.5-.41,1.02-.58,1.58-.5s1.04,.33,1.46,.74c.41,.41,.62,.95,.62,1.61,0,.33-.05,.63-.15,.9-.11,.27-.28,.55-.53,.84-2.11,1.94-4.47,3.32-7.07,4.13-2.6,.81-5.31,1.21-8.13,1.21Z"/><path class="cls-2" d="M611.64,245.83c-.7,0-1.28-.23-1.74-.68-.46-.45-.68-1.03-.68-1.74v-43.62c0-.7,.23-1.28,.68-1.74s1.03-.68,1.74-.68,1.28,.23,1.74,.68,.68,1.04,.68,1.74v19.36h30.28v-19.36c0-.7,.23-1.28,.68-1.74s1.03-.68,1.74-.68,1.28,.23,1.74,.68c.45,.46,.68,1.04,.68,1.74v43.62c0,.7-.23,1.28-.68,1.74s-1.04,.68-1.74,.68-1.28-.23-1.74-.68c-.46-.45-.68-1.03-.68-1.74v-19.92h-30.28v19.92c0,.7-.23,1.28-.68,1.74-.45,.46-1.03,.68-1.74,.68Z"/><path class="cls-2" d="M683.86,245.83c-.7,0-1.28-.23-1.74-.68-.46-.45-.68-1.03-.68-1.74v-43.62c0-.7,.23-1.28,.68-1.74s1.03-.68,1.74-.68h29.1c.66,0,1.23,.22,1.71,.65,.47,.43,.71,1,.71,1.71,0,.62-.24,1.16-.71,1.61-.48,.46-1.05,.68-1.71,.68h-26.68v17.12h19.42c.7,0,1.28,.23,1.74,.68,.45,.46,.68,1.01,.68,1.67s-.23,1.22-.68,1.67-1.04,.68-1.74,.68h-19.42v17.31h26.68c.66,0,1.23,.23,1.71,.68,.47,.46,.71,.99,.71,1.61,0,.7-.24,1.27-.71,1.71-.48,.43-1.05,.65-1.71,.65h-29.1Zm7.82-53.85c-.7,0-1.29-.2-1.77-.59-.48-.39-.71-.92-.71-1.58,0-.87,.39-1.57,1.18-2.11l7.32-4.84c.33-.21,.72-.31,1.18-.31,.25,0,.47,.03,.68,.09,.21,.06,.39,.14,.56,.22l7.26,4.84c.79,.54,1.18,1.24,1.18,2.11,0,.62-.23,1.14-.68,1.55-.46,.41-1.04,.62-1.74,.62-.29,0-.55-.04-.77-.12-.23-.08-.47-.21-.71-.37l-5.77-3.97-5.77,3.97c-.46,.33-.93,.5-1.43,.5Z"/></g><g><g><path class="cls-1" d="M374.37,143.68c-8.39,0-15.91-1.99-22.55-5.96-6.65-3.98-11.9-9.4-15.77-16.26-3.87-6.86-5.8-14.6-5.8-23.2s1.99-16.5,5.96-23.37c3.98-6.86,9.4-12.28,16.26-16.26,6.86-3.98,14.6-5.96,23.2-5.96s16.31,1.99,23.12,5.96c6.81,3.98,12.2,9.4,16.18,16.26,3.98,6.86,6.02,14.65,6.13,23.37l-5.07,3.92c0,7.84-1.83,14.9-5.47,21.16-3.65,6.27-8.61,11.22-14.87,14.87-6.27,3.65-13.37,5.47-21.32,5.47Zm1.31-11.44c6.32,0,11.95-1.47,16.91-4.41,4.96-2.94,8.88-7,11.77-12.17,2.88-5.17,4.33-10.97,4.33-17.4s-1.45-12.36-4.33-17.48c-2.89-5.12-6.81-9.18-11.77-12.17-4.96-3-10.59-4.49-16.91-4.49s-11.82,1.5-16.83,4.49c-5.01,3-8.99,7.05-11.93,12.17-2.94,5.12-4.41,10.95-4.41,17.48s1.47,12.23,4.41,17.4c2.94,5.18,6.92,9.23,11.93,12.17,5.01,2.94,10.62,4.41,16.83,4.41Zm39.05,10.62c-1.85,0-3.38-.57-4.57-1.72-1.2-1.14-1.8-2.64-1.8-4.49v-27.94l3.1-12.91,9.64,2.45v38.4c0,1.85-.6,3.35-1.8,4.49-1.2,1.14-2.72,1.72-4.58,1.72Z"/><path class="cls-1" d="M461.62,142.86c-4.36,0-8.25-1.2-11.68-3.6-3.43-2.39-6.1-5.72-8.01-9.97-1.91-4.25-2.86-9.15-2.86-14.71V21.45c0-1.85,.57-3.35,1.72-4.49,1.14-1.14,2.64-1.72,4.49-1.72s3.35,.57,4.49,1.72c1.14,1.14,1.72,2.64,1.72,4.49V114.59c0,4.68,.95,8.5,2.86,11.44,1.9,2.94,4.33,4.41,7.27,4.41h4.09c1.63,0,2.94,.57,3.92,1.72s1.47,2.64,1.47,4.49-.68,3.35-2.04,4.49c-1.36,1.14-3.13,1.72-5.31,1.72h-2.13Z"/><path class="cls-1" d="M520.78,143.68c-8.82,0-16.64-1.93-23.45-5.8-6.81-3.87-12.15-9.23-16.01-16.1-3.87-6.86-5.8-14.71-5.8-23.53s1.82-16.8,5.47-23.61c3.65-6.81,8.69-12.17,15.11-16.1,6.43-3.92,13.83-5.88,22.22-5.88s15.49,1.88,21.65,5.64c6.15,3.76,10.92,8.96,14.3,15.6,3.38,6.65,5.07,14.22,5.07,22.71,0,1.74-.55,3.13-1.63,4.17-1.09,1.04-2.51,1.55-4.25,1.55h-69.45v-10.46h70.75l-7.03,5.07c.11-6.32-1.04-11.98-3.43-17-2.4-5.01-5.8-8.93-10.21-11.77-4.41-2.83-9.67-4.25-15.77-4.25s-11.66,1.47-16.34,4.41c-4.69,2.94-8.31,7-10.87,12.17-2.56,5.17-3.84,11.08-3.84,17.73s1.44,12.53,4.33,17.65c2.88,5.12,6.84,9.15,11.85,12.09,5.01,2.94,10.78,4.41,17.32,4.41,3.92,0,7.87-.68,11.85-2.04,3.98-1.36,7.16-3.08,9.56-5.15,1.2-.98,2.56-1.5,4.08-1.55,1.52-.05,2.83,.36,3.92,1.23,1.41,1.31,2.15,2.72,2.21,4.25,.05,1.53-.57,2.83-1.88,3.92-3.59,3.05-8.17,5.58-13.72,7.6-5.56,2.02-10.9,3.02-16.01,3.02Z"/><path class="cls-1" d="M570.13,142.86c-1.74,0-3.13-.54-4.17-1.63-1.04-1.09-1.58-2.4-1.64-3.92-.06-1.52,.52-2.99,1.72-4.41l30.07-37.58,7.03,9.32-28.6,36.28c-.98,1.31-2.45,1.96-4.41,1.96Zm64.71,0c-1.31,0-2.37-.22-3.19-.65-.82-.43-1.66-1.2-2.53-2.29l-28.27-35.95-4.9-4.25-28.43-36.11c-1.2-1.41-1.77-2.89-1.72-4.41,.05-1.52,.57-2.86,1.55-4,.98-1.14,2.39-1.72,4.25-1.72s3.43,.65,4.74,1.96l27.45,35.13,4.41,3.6,30.39,38.89c1.41,1.75,2.01,3.38,1.8,4.9-.22,1.53-.9,2.72-2.04,3.59-1.14,.87-2.32,1.31-3.51,1.31Zm-26.47-42.49l-8.01-8.17,28.27-35.79c.76-1.09,1.61-1.85,2.53-2.29,.92-.43,1.88-.65,2.86-.65,1.85,0,3.27,.57,4.25,1.72,.98,1.14,1.44,2.51,1.39,4.09-.06,1.58-.63,3.08-1.72,4.49l-29.58,36.6Z"/><path class="cls-1" d="M689.9,143.68c-8.39,0-15.91-1.99-22.55-5.96-6.65-3.98-11.9-9.4-15.77-16.26-3.87-6.86-5.8-14.6-5.8-23.2s1.99-16.5,5.96-23.37c3.98-6.86,9.4-12.28,16.26-16.26,6.86-3.98,14.6-5.96,23.2-5.96s16.31,1.99,23.12,5.96c6.81,3.98,12.2,9.4,16.18,16.26,3.98,6.86,6.02,14.65,6.13,23.37l-5.07,3.92c0,7.84-1.83,14.9-5.47,21.16-3.65,6.27-8.61,11.22-14.87,14.87-6.27,3.65-13.37,5.47-21.32,5.47Zm1.31-11.44c6.32,0,11.95-1.47,16.91-4.41,4.96-2.94,8.88-7,11.77-12.17,2.88-5.17,4.33-10.97,4.33-17.4s-1.45-12.36-4.33-17.48c-2.89-5.12-6.81-9.18-11.77-12.17-4.96-3-10.59-4.49-16.91-4.49s-11.82,1.5-16.83,4.49c-5.01,3-8.99,7.05-11.93,12.17-2.94,5.12-4.41,10.95-4.41,17.48s1.47,12.23,4.41,17.4c2.94,5.18,6.92,9.23,11.93,12.17,5.01,2.94,10.62,4.41,16.83,4.41Zm39.05,10.62c-1.85,0-3.38-.57-4.57-1.72-1.2-1.14-1.8-2.64-1.8-4.49v-27.94l3.1-12.91,9.64,2.45v38.4c0,1.85-.6,3.35-1.8,4.49-1.2,1.14-2.72,1.72-4.58,1.72Z"/><path class="cls-1" d="M764.25,142.86c-1.96,0-3.51-.57-4.66-1.72-1.14-1.14-1.72-2.64-1.72-4.49V59.85c0-1.96,.57-3.51,1.72-4.66,1.14-1.14,2.7-1.72,4.66-1.72,1.85,0,3.35,.57,4.49,1.72s1.72,2.7,1.72,4.66v76.8c0,1.85-.57,3.35-1.72,4.49s-2.64,1.72-4.49,1.72Zm70.27,0c-1.85,0-3.38-.6-4.58-1.8-1.2-1.2-1.8-2.67-1.8-4.41v-42.49c0-6.75-1.28-12.31-3.84-16.67-2.56-4.36-6.05-7.62-10.46-9.81-4.41-2.18-9.4-3.27-14.95-3.27s-10.16,1.04-14.46,3.11c-4.3,2.07-7.71,4.9-10.21,8.5-2.51,3.59-3.76,7.68-3.76,12.25h-8.99c.22-6.86,2.07-12.99,5.56-18.38,3.49-5.39,8.11-9.64,13.89-12.74,5.77-3.11,12.2-4.66,19.28-4.66,7.73,0,14.65,1.61,20.75,4.82,6.1,3.21,10.92,7.93,14.46,14.13,3.54,6.21,5.31,13.78,5.31,22.71v42.49c0,1.74-.6,3.21-1.8,4.41-1.2,1.2-2.67,1.8-4.41,1.8Z"/><path class="cls-1" d="M905.92,143.68c-8.61,0-16.34-1.99-23.2-5.96-6.86-3.98-12.28-9.4-16.26-16.26-3.98-6.86-5.96-14.65-5.96-23.37s1.93-16.34,5.8-23.2c3.87-6.86,9.12-12.28,15.77-16.26,6.64-3.98,14.16-5.96,22.55-5.96,7.3,0,13.89,1.55,19.77,4.66,5.88,3.1,10.62,7.22,14.22,12.34V21.61c0-1.96,.6-3.51,1.8-4.66,1.2-1.14,2.72-1.72,4.57-1.72s3.38,.57,4.58,1.72c1.2,1.14,1.8,2.7,1.8,4.66V98.74c-.22,8.5-2.32,16.15-6.29,22.96-3.98,6.81-9.37,12.17-16.18,16.1-6.81,3.92-14.46,5.88-22.96,5.88Zm0-11.44c6.32,0,11.95-1.5,16.91-4.49,4.96-3,8.88-7.05,11.77-12.17,2.88-5.12,4.33-10.95,4.33-17.49s-1.45-12.23-4.33-17.4c-2.89-5.17-6.81-9.23-11.77-12.17-4.96-2.94-10.59-4.41-16.91-4.41s-11.82,1.47-16.83,4.41c-5.01,2.94-8.99,7-11.93,12.17-2.94,5.17-4.41,10.98-4.41,17.4s1.47,12.36,4.41,17.49c2.94,5.12,6.92,9.18,11.93,12.17,5.01,3,10.62,4.49,16.83,4.49Z"/><path class="cls-1" d="M983.7,142.86c-1.96,0-3.49-.54-4.58-1.63s-1.63-2.62-1.63-4.58V59.69c0-1.96,.54-3.48,1.63-4.57,1.09-1.09,2.62-1.64,4.58-1.64s3.49,.55,4.58,1.64c1.09,1.09,1.63,2.61,1.63,4.57v76.97c0,1.96-.55,3.49-1.63,4.58-1.09,1.09-2.62,1.63-4.58,1.63Zm-.98-55.07c.33-6.75,2.1-12.8,5.31-18.14,3.21-5.34,7.41-9.53,12.58-12.58,5.17-3.05,10.92-4.58,17.24-4.58,5.01,0,8.88,.71,11.6,2.13,2.72,1.42,3.76,3.49,3.1,6.21-.44,1.63-1.17,2.72-2.21,3.27-1.04,.55-2.29,.76-3.76,.65-1.47-.11-3.13-.22-4.98-.33-6.1-.54-11.52,.08-16.26,1.88-4.74,1.8-8.5,4.55-11.28,8.25-2.78,3.7-4.17,8.12-4.17,13.23h-7.19Z"/><path class="cls-1" d="M1081.91,143.68c-8.39,0-15.91-1.99-22.55-5.96-6.65-3.98-11.9-9.4-15.77-16.26-3.87-6.86-5.8-14.6-5.8-23.2s1.99-16.5,5.96-23.37c3.98-6.86,9.4-12.28,16.26-16.26,6.86-3.98,14.6-5.96,23.2-5.96s16.31,1.99,23.12,5.96c6.81,3.98,12.2,9.4,16.18,16.26,3.98,6.86,6.02,14.65,6.13,23.37l-5.07,3.92c0,7.84-1.83,14.9-5.47,21.16-3.65,6.27-8.61,11.22-14.87,14.87-6.27,3.65-13.37,5.47-21.32,5.47Zm1.31-11.44c6.32,0,11.95-1.47,16.91-4.41,4.96-2.94,8.88-7,11.77-12.17,2.88-5.17,4.33-10.97,4.33-17.4s-1.45-12.36-4.33-17.48c-2.89-5.12-6.81-9.18-11.77-12.17-4.96-3-10.59-4.49-16.91-4.49s-11.82,1.5-16.83,4.49c-5.01,3-8.99,7.05-11.93,12.17-2.94,5.12-4.41,10.95-4.41,17.48s1.47,12.23,4.41,17.4c2.94,5.18,6.92,9.23,11.93,12.17,5.01,2.94,10.62,4.41,16.83,4.41Zm39.05,10.62c-1.85,0-3.38-.57-4.57-1.72-1.2-1.14-1.8-2.64-1.8-4.49v-27.94l3.1-12.91,9.64,2.45v38.4c0,1.85-.6,3.35-1.8,4.49-1.2,1.14-2.72,1.72-4.58,1.72Z"/></g><g><path class="cls-1" d="M1230.62,142.86c-8.82,0-16.64-1.93-23.45-5.8-6.81-3.87-12.15-9.23-16.01-16.1-3.87-6.86-5.8-14.71-5.8-23.53s1.82-16.8,5.47-23.61c3.65-6.81,8.69-12.17,15.11-16.1,6.43-3.92,13.83-5.88,22.22-5.88s15.49,1.88,21.65,5.64c6.15,3.76,10.92,8.96,14.3,15.6,3.38,6.65,5.07,14.22,5.07,22.71,0,1.74-.55,3.13-1.63,4.17-1.09,1.04-2.51,1.55-4.25,1.55h-69.45v-10.46h70.75l-7.03,5.07c.11-6.32-1.04-11.98-3.43-17-2.4-5.01-5.8-8.93-10.21-11.77-4.41-2.83-9.67-4.25-15.77-4.25s-11.66,1.47-16.34,4.41c-4.69,2.94-8.31,7-10.87,12.17-2.56,5.17-3.84,11.08-3.84,17.73s1.44,12.53,4.33,17.65c2.88,5.12,6.84,9.15,11.85,12.09,5.01,2.94,10.78,4.41,17.32,4.41,3.92,0,7.87-.68,11.85-2.04,3.98-1.36,7.16-3.08,9.56-5.15,1.2-.98,2.56-1.5,4.08-1.55,1.52-.05,2.83,.36,3.92,1.23,1.41,1.31,2.15,2.72,2.21,4.25,.05,1.53-.57,2.83-1.88,3.92-3.59,3.05-8.17,5.58-13.72,7.6-5.56,2.02-10.9,3.02-16.01,3.02Z"/><path class="cls-1" d="M1318.36,142.86c-6.43,0-12.8-1.09-19.12-3.27-6.32-2.18-11.44-5.45-15.36-9.81-1.2-1.31-1.69-2.78-1.47-4.41,.22-1.63,1.03-3.05,2.45-4.25,1.52-1.09,3.11-1.52,4.74-1.31,1.63,.22,3,.93,4.09,2.13,2.61,3.05,6.07,5.39,10.38,7.03,4.3,1.63,9.07,2.45,14.3,2.45,8.06,0,13.89-1.39,17.49-4.17,3.6-2.78,5.45-6.13,5.56-10.05,0-3.92-1.85-7.16-5.56-9.72-3.7-2.56-9.8-4.55-18.3-5.96-11-1.74-19.07-4.79-24.18-9.15-5.12-4.36-7.68-9.53-7.68-15.52,0-5.56,1.47-10.19,4.41-13.89,2.94-3.7,6.86-6.48,11.77-8.33,4.9-1.85,10.29-2.78,16.18-2.78,7.3,0,13.59,1.25,18.87,3.76,5.28,2.51,9.56,5.88,12.83,10.13,1.09,1.42,1.52,2.89,1.31,4.41-.22,1.53-1.09,2.78-2.61,3.76-1.31,.76-2.81,1.01-4.49,.74-1.69-.27-3.13-1.06-4.33-2.37-2.72-3.16-5.88-5.47-9.48-6.95-3.59-1.47-7.74-2.21-12.42-2.21-5.99,0-10.79,1.23-14.38,3.68-3.6,2.45-5.39,5.53-5.39,9.23,0,2.51,.68,4.69,2.04,6.54,1.36,1.85,3.7,3.49,7.03,4.9,3.32,1.42,7.98,2.62,13.97,3.6,8.17,1.31,14.62,3.24,19.36,5.8s8.11,5.55,10.13,8.99c2.01,3.43,3.02,7.16,3.02,11.19,0,5.12-1.5,9.61-4.49,13.48-3,3.87-7.14,6.89-12.42,9.07-5.29,2.18-11.36,3.27-18.22,3.27Z"/><path class="cls-1" d="M1366.24,66.88c-1.64,0-3-.51-4.09-1.55-1.09-1.03-1.63-2.31-1.63-3.84,0-1.64,.54-2.97,1.63-4,1.09-1.03,2.45-1.55,4.09-1.55h41.67c1.64,0,3,.52,4.09,1.55,1.09,1.04,1.63,2.37,1.63,4,0,1.53-.55,2.81-1.63,3.84-1.09,1.04-2.45,1.55-4.09,1.55h-41.67Zm40.69,75.17c-5.78,0-10.92-1.36-15.44-4.09-4.52-2.72-8.09-6.45-10.7-11.19-2.61-4.74-3.92-10.16-3.92-16.26V30.6c0-1.85,.57-3.38,1.72-4.58,1.14-1.2,2.64-1.8,4.49-1.8s3.38,.6,4.58,1.8c1.2,1.2,1.8,2.73,1.8,4.58V110.51c0,5.55,1.63,10.1,4.9,13.64,3.27,3.54,7.46,5.31,12.58,5.31h4.41c1.74,0,3.16,.6,4.25,1.8,1.09,1.2,1.64,2.73,1.64,4.58s-.65,3.35-1.96,4.49c-1.31,1.14-2.94,1.72-4.9,1.72h-3.43Z"/><path class="cls-1" d="M1474.91,142.86c-8.82,0-16.64-1.93-23.45-5.8-6.81-3.87-12.15-9.23-16.01-16.1-3.87-6.86-5.8-14.71-5.8-23.53s1.82-16.8,5.47-23.61c3.65-6.81,8.69-12.17,15.11-16.1,6.43-3.92,13.83-5.88,22.22-5.88s15.49,1.88,21.65,5.64c6.15,3.76,10.92,8.96,14.3,15.6,3.38,6.65,5.07,14.22,5.07,22.71,0,1.74-.55,3.13-1.63,4.17-1.09,1.04-2.51,1.55-4.25,1.55h-69.45v-10.46h70.75l-7.03,5.07c.11-6.32-1.04-11.98-3.43-17-2.4-5.01-5.8-8.93-10.21-11.77-4.41-2.83-9.67-4.25-15.77-4.25s-11.66,1.47-16.34,4.41c-4.69,2.94-8.31,7-10.87,12.17-2.56,5.17-3.84,11.08-3.84,17.73s1.44,12.53,4.33,17.65c2.88,5.12,6.84,9.15,11.85,12.09,5.01,2.94,10.78,4.41,17.32,4.41,3.92,0,7.87-.68,11.85-2.04,3.98-1.36,7.16-3.08,9.56-5.15,1.2-.98,2.56-1.5,4.08-1.55,1.52-.05,2.83,.36,3.92,1.23,1.41,1.31,2.15,2.72,2.21,4.25,.05,1.53-.57,2.83-1.88,3.92-3.59,3.05-8.17,5.58-13.72,7.6-5.56,2.02-10.9,3.02-16.01,3.02Z"/><path class="cls-1" d="M1558.74,142.04c-2.61,0-4.58-1.41-5.88-4.25l-36.28-76.97c-.65-1.41-.71-2.83-.16-4.25,.54-1.41,1.64-2.51,3.27-3.27,1.52-.76,3-.87,4.41-.33,1.41,.55,2.51,1.53,3.27,2.94l34.81,75.33h-6.7l34.32-75.33c.65-1.52,1.77-2.53,3.35-3.02,1.58-.49,3.13-.41,4.66,.25,1.52,.76,2.56,1.88,3.11,3.35,.54,1.47,.49,2.86-.16,4.17l-35.79,77.13c-1.31,2.83-3.38,4.25-6.21,4.25Z"/><path class="cls-1" d="M1652.53,142.86c-8.82,0-16.64-1.93-23.45-5.8-6.81-3.87-12.15-9.23-16.01-16.1-3.87-6.86-5.8-14.71-5.8-23.53s1.82-16.8,5.47-23.61c3.65-6.81,8.69-12.17,15.11-16.1,6.43-3.92,13.83-5.88,22.22-5.88s15.49,1.88,21.65,5.64c6.15,3.76,10.92,8.96,14.3,15.6,3.38,6.65,5.07,14.22,5.07,22.71,0,1.74-.55,3.13-1.63,4.17-1.09,1.04-2.51,1.55-4.25,1.55h-69.45v-10.46h70.75l-7.03,5.07c.11-6.32-1.04-11.98-3.43-17-2.4-5.01-5.8-8.93-10.21-11.77-4.41-2.83-9.67-4.25-15.77-4.25s-11.66,1.47-16.34,4.41c-4.69,2.94-8.31,7-10.87,12.17-2.56,5.17-3.84,11.08-3.84,17.73s1.44,12.53,4.33,17.65c2.88,5.12,6.84,9.15,11.85,12.09,5.01,2.94,10.78,4.41,17.32,4.41,3.92,0,7.87-.68,11.85-2.04,3.98-1.36,7.16-3.08,9.56-5.15,1.2-.98,2.56-1.5,4.08-1.55,1.52-.05,2.83,.36,3.92,1.23,1.41,1.31,2.15,2.72,2.21,4.25,.05,1.53-.57,2.83-1.88,3.92-3.59,3.05-8.17,5.58-13.72,7.6-5.56,2.02-10.9,3.02-16.01,3.02Z"/><path class="cls-1" d="M1740.28,142.86c-6.43,0-12.8-1.09-19.12-3.27-6.32-2.18-11.44-5.45-15.36-9.81-1.2-1.31-1.69-2.78-1.47-4.41,.22-1.63,1.03-3.05,2.45-4.25,1.52-1.09,3.11-1.52,4.74-1.31,1.63,.22,3,.93,4.09,2.13,2.61,3.05,6.07,5.39,10.38,7.03,4.3,1.63,9.07,2.45,14.3,2.45,8.06,0,13.89-1.39,17.49-4.17,3.6-2.78,5.45-6.13,5.56-10.05,0-3.92-1.85-7.16-5.56-9.72-3.7-2.56-9.8-4.55-18.3-5.96-11-1.74-19.07-4.79-24.18-9.15-5.12-4.36-7.68-9.53-7.68-15.52,0-5.56,1.47-10.19,4.41-13.89,2.94-3.7,6.86-6.48,11.77-8.33,4.9-1.85,10.29-2.78,16.18-2.78,7.3,0,13.59,1.25,18.87,3.76,5.28,2.51,9.56,5.88,12.83,10.13,1.09,1.42,1.52,2.89,1.31,4.41-.22,1.53-1.09,2.78-2.61,3.76-1.31,.76-2.81,1.01-4.49,.74-1.69-.27-3.13-1.06-4.33-2.37-2.72-3.16-5.88-5.47-9.48-6.95-3.59-1.47-7.74-2.21-12.42-2.21-5.99,0-10.79,1.23-14.38,3.68-3.6,2.45-5.39,5.53-5.39,9.23,0,2.51,.68,4.69,2.04,6.54,1.36,1.85,3.7,3.49,7.03,4.9,3.32,1.42,7.98,2.62,13.97,3.6,8.17,1.31,14.62,3.24,19.36,5.8s8.11,5.55,10.13,8.99c2.01,3.43,3.02,7.16,3.02,11.19,0,5.12-1.5,9.61-4.49,13.48-3,3.87-7.14,6.89-12.42,9.07-5.29,2.18-11.36,3.27-18.22,3.27Z"/></g><g><path class="cls-2" d="M794.91,246.08c-2.65,0-5.1-.38-7.35-1.15-2.26-.77-4.21-1.85-5.86-3.26s-2.92-3.04-3.78-4.9c-.33-.66-.34-1.27-.03-1.83,.31-.56,.84-.94,1.58-1.15,.58-.17,1.15-.1,1.71,.19,.56,.29,.98,.72,1.27,1.3,.62,1.2,1.53,2.27,2.73,3.23,1.2,.95,2.63,1.69,4.28,2.2,1.65,.52,3.47,.77,5.46,.77,2.19,0,4.14-.36,5.83-1.09,1.7-.72,3.03-1.78,4-3.16,.97-1.39,1.46-3.07,1.46-5.06,0-2.52-.93-4.69-2.79-6.51-1.86-1.82-4.78-2.98-8.75-3.47-4.84-.58-8.62-2.08-11.35-4.5-2.73-2.42-4.09-5.39-4.09-8.9,0-2.52,.67-4.72,2.02-6.58,1.34-1.86,3.2-3.3,5.55-4.31,2.36-1.01,5.07-1.52,8.13-1.52,2.27,0,4.34,.36,6.2,1.09,1.86,.73,3.48,1.68,4.87,2.85,1.39,1.18,2.51,2.47,3.38,3.88,.41,.66,.55,1.3,.4,1.92-.15,.62-.51,1.1-1.09,1.43-.62,.29-1.25,.33-1.89,.12-.64-.21-1.13-.6-1.46-1.18-.62-.95-1.4-1.85-2.33-2.7-.93-.85-2.06-1.52-3.38-2.02-1.32-.5-2.92-.77-4.78-.81-3.27,0-5.89,.69-7.88,2.08-1.98,1.39-2.98,3.4-2.98,6.05,0,1.41,.37,2.7,1.12,3.88,.74,1.18,1.97,2.19,3.69,3.04,1.72,.85,4.02,1.48,6.92,1.89,5.17,.75,9,2.33,11.51,4.75,2.5,2.42,3.75,5.57,3.75,9.46,0,2.23-.4,4.22-1.21,5.96-.81,1.74-1.94,3.2-3.41,4.37-1.47,1.18-3.19,2.08-5.15,2.7-1.97,.62-4.06,.93-6.3,.93Z"/><path class="cls-2" d="M835.43,201.41c-.66,0-1.2-.21-1.61-.62s-.62-.93-.62-1.55c0-.66,.21-1.2,.62-1.61s.95-.62,1.61-.62h34.31c.66,0,1.2,.21,1.61,.62,.41,.41,.62,.95,.62,1.61,0,.62-.21,1.14-.62,1.55-.41,.41-.95,.62-1.61,.62h-34.31Zm17.12,44.05c-.66,0-1.23-.24-1.71-.71-.47-.48-.71-1.04-.71-1.71v-46.04h4.84v46.04c0,.66-.23,1.23-.68,1.71-.46,.47-1.04,.71-1.74,.71Z"/><path class="cls-2" d="M918.26,246.45c-3.77,0-7.11-.72-10.02-2.17-2.92-1.45-5.19-3.45-6.82-6.02-1.64-2.56-2.45-5.5-2.45-8.81v-30.03c0-.7,.23-1.28,.68-1.74s1.03-.68,1.74-.68,1.28,.23,1.74,.68,.68,1.04,.68,1.74v30.03c0,2.44,.61,4.59,1.83,6.45,1.22,1.86,2.93,3.32,5.12,4.37,2.19,1.06,4.69,1.58,7.51,1.58s5.23-.53,7.38-1.58c2.15-1.05,3.84-2.51,5.06-4.37,1.22-1.86,1.83-4.01,1.83-6.45v-30.03c0-.7,.23-1.28,.68-1.74s1.03-.68,1.74-.68c.74,0,1.33,.23,1.77,.68,.44,.46,.65,1.04,.65,1.74v30.03c0,3.31-.82,6.25-2.45,8.81-1.63,2.57-3.89,4.57-6.76,6.02-2.87,1.45-6.17,2.17-9.9,2.17Z"/><path class="cls-2" d="M972.05,245.46c-.7,0-1.28-.23-1.74-.68-.46-.45-.68-1.03-.68-1.74v-43.62c0-.7,.23-1.28,.68-1.74s1.03-.68,1.74-.68h11.17c3.56,0,6.81,.59,9.77,1.77,2.96,1.18,5.51,2.85,7.66,5.03,2.15,2.17,3.82,4.73,5,7.66,1.18,2.94,1.77,6.18,1.77,9.74s-.59,6.81-1.77,9.77c-1.18,2.96-2.84,5.52-5,7.69-2.15,2.17-4.7,3.85-7.66,5.03s-6.22,1.77-9.77,1.77h-11.17Zm2.42-4.34h8.75c3.8,0,7.17-.86,10.08-2.57,2.92-1.72,5.2-4.07,6.86-7.07,1.65-3,2.48-6.42,2.48-10.27s-.83-7.27-2.48-10.27c-1.65-3-3.94-5.34-6.86-7.04-2.92-1.7-6.28-2.54-10.08-2.54h-8.75v39.77Z"/><path class="cls-2" d="M1039.67,245.46c-.7,0-1.28-.23-1.74-.68-.46-.45-.68-1.03-.68-1.74v-43.62c0-.7,.23-1.28,.68-1.74s1.03-.68,1.74-.68,1.28,.23,1.74,.68,.68,1.04,.68,1.74v43.62c0,.7-.23,1.28-.68,1.74-.45,.46-1.03,.68-1.74,.68Z"/><path class="cls-2" d="M1096.75,246.08c-3.6,0-6.91-.62-9.93-1.86-3.02-1.24-5.64-2.98-7.85-5.21-2.21-2.23-3.93-4.86-5.15-7.88-1.22-3.02-1.83-6.33-1.83-9.93s.61-6.84,1.83-9.87c1.22-3.02,2.94-5.65,5.15-7.88,2.21-2.23,4.83-3.97,7.85-5.21s6.33-1.86,9.93-1.86,6.84,.62,9.87,1.86c3.02,1.24,5.65,2.98,7.88,5.21,2.23,2.23,3.96,4.86,5.18,7.88,1.22,3.02,1.83,6.31,1.83,9.87s-.61,6.91-1.83,9.93c-1.22,3.02-2.95,5.65-5.18,7.88-2.23,2.23-4.86,3.97-7.88,5.21-3.02,1.24-6.31,1.86-9.87,1.86Zm0-4.59c2.85,0,5.5-.5,7.94-1.52,2.44-1.01,4.56-2.44,6.36-4.28,1.8-1.84,3.2-3.99,4.19-6.45,.99-2.46,1.49-5.14,1.49-8.04s-.5-5.51-1.49-7.97c-.99-2.46-2.39-4.61-4.19-6.45-1.8-1.84-3.92-3.27-6.36-4.28-2.44-1.01-5.09-1.52-7.94-1.52s-5.56,.51-8,1.52c-2.44,1.01-4.56,2.44-6.36,4.28-1.8,1.84-3.2,3.99-4.19,6.45-.99,2.46-1.49,5.12-1.49,7.97s.5,5.57,1.49,8.04c.99,2.46,2.39,4.61,4.19,6.45,1.8,1.84,3.92,3.27,6.36,4.28,2.44,1.01,5.11,1.52,8,1.52Z"/></g></g></g></g></svg>