<?xml version="1.0" encoding="UTF-8"?><svg id="Camada_2" xmlns="http://www.w3.org/2000/svg" viewBox="0 0 79.94 233.85"><defs><style>.cls-1{fill:#594d4d;}</style></defs><g id="Camada_1-2"><g><path class="cls-1" d="M79.55,206.35c-1.97-13.32-20.11,10.35-19.8-4.83,.65-17.19,1.18-35.24,1.61-53.83,.05-31.52,1.58-63.23,1.22-94.27-.03-2.39-.34-4.75-.9-7.07-1.79-7.36-5.16-17.24-12.63-10.76-2.82,55.18-2.79,81.2-2.77,111.48,.02,26.1-.09,52.21,.89,75.22,.14,3.23,2.48,7.59,5.33,9.52,12.95,8.77,30.26-12.79,27.04-25.46Z"/><path class="cls-1" d="M.39,172.86c1.97-13.32,20.11,10.35,19.8-4.83-.65-17.19-1.18-35.24-1.61-53.83-.05-31.52-1.58-63.23-1.22-94.27,.03-2.39,.34-4.75,.9-7.07,1.79-7.36,5.16-17.24,12.63-10.76,2.82,55.18,2.79,81.2,2.77,111.48-.02,26.1,.09,52.21-.89,75.22-.14,3.23-2.48,7.59-5.33,9.52-12.95,8.77-30.26-12.79-27.04-25.46Z"/></g></g></svg>