<svg xmlns="http://www.w3.org/2000/svg" width="22" height="22"><defs><clipPath id="a"><path data-name="Retângulo 6" transform="translate(1441 787)" fill="#fff" stroke="#707070" d="M0 0h22v22H0z"/></clipPath></defs><g transform="translate(-1441 -787)" clip-path="url(#a)"><path d="M1444.902 789.296a2.4 2.4 0 01.56-.062l15.312 1.093c1.371.024 2.714 1.162 2.052 2.642-.129.287-.712 1.459-1.639 3.3l-1.154 2.293-.376.743-.115.228a2.877 2.877 0 01-1.811 1.7l-.162.052h-13.226a1.2 1.2 0 00-1.151 1.1v1.03a1.23 1.23 0 001.1 1.162h.187a3.289 3.289 0 016.2 0h2.565a3.289 3.289 0 110 2.192h-2.565a3.289 3.289 0 01-6.2 0h-.249a3.447 3.447 0 01-3.226-3.287v-1.154a3.42 3.42 0 013.275-3.233l-1.076-7.518-.011-.155a3.107 3.107 0 00-.775-1.965 2.768 2.768 0 00-1.417-.227v-2.192a4.044 4.044 0 012.967.869 4.766 4.766 0 01.935 1.389zm1.7 9.8h10.586a.685.685 0 00.318-.37l.054-.124.142-.282.374-.742c.388-.767.775-1.538 1.137-2.258l.016-.032c.634-1.26 1.118-2.232 1.383-2.774l-15.217-1.092 1.074 7.518a.186.186 0 00.135.153zm9.741 7.672a1.1 1.1 0 10-1.1-1.1 1.1 1.1 0 001.102 1.099zm-8.768 0a1.1 1.1 0 10-1.1-1.1 1.1 1.1 0 001.104 1.099z" fill="#fff" fill-rule="evenodd"/></g></svg>