<svg xmlns="http://www.w3.org/2000/svg" width="22" height="22"><defs><clipPath id="a"><path data-name="Retângulo 22" transform="translate(275 953)" fill="#fff" stroke="#707070" d="M0 0h22v22H0z"/></clipPath></defs><g transform="translate(-275 -953)" clip-path="url(#a)"><g fill="#272727"><path data-name="Caminho 56" d="M288.105 964a2.105 2.105 0 11-2.105-2.105 2.105 2.105 0 012.105 2.105zm0 0"/><path data-name="Caminho 57" d="M290.924 960.275a2.092 2.092 0 00-1.2-1.2 3.5 3.5 0 00-1.173-.217c-.666-.03-.866-.037-2.552-.037s-1.886.006-2.552.037a3.5 3.5 0 00-1.173.218 2.093 2.093 0 00-1.2 1.2 3.5 3.5 0 00-.217 1.173c-.03.666-.037.866-.037 2.552s.007 1.886.037 2.552a3.5 3.5 0 00.217 1.173 2.092 2.092 0 001.2 1.2 3.49 3.49 0 001.173.218c.666.03.866.037 2.552.037s1.887-.006 2.552-.037a3.49 3.49 0 001.173-.218 2.092 2.092 0 001.2-1.2 3.5 3.5 0 00.218-1.173c.03-.666.037-.866.037-2.552s-.006-1.886-.037-2.552a3.49 3.49 0 00-.218-1.173zM286 967.243a3.243 3.243 0 113.243-3.243 3.243 3.243 0 01-3.243 3.243zm3.372-5.857a.758.758 0 11.758-.758.758.758 0 01-.758.758zm0 0"/><path data-name="Caminho 58" d="M286 953a11 11 0 1011 11 11 11 0 00-11-11zm6.278 13.6a4.634 4.634 0 01-.294 1.533 3.23 3.23 0 01-1.847 1.847 4.637 4.637 0 01-1.533.294c-.674.031-.889.038-2.6.038s-1.931-.007-2.6-.038a4.637 4.637 0 01-1.533-.294 3.23 3.23 0 01-1.847-1.847 4.633 4.633 0 01-.302-1.533c-.031-.674-.038-.889-.038-2.6s.007-1.931.038-2.6a4.635 4.635 0 01.293-1.533 3.232 3.232 0 011.848-1.852 4.639 4.639 0 011.537-.293c.674-.031.889-.038 2.6-.038s1.931.007 2.6.038a4.639 4.639 0 011.533.293 3.231 3.231 0 011.847 1.847 4.634 4.634 0 01.298 1.538c.031.674.038.889.038 2.6s-.007 1.931-.038 2.6zm0 0"/></g></g></svg>