<svg xmlns="http://www.w3.org/2000/svg" width="22" height="22"><defs><clipPath id="a"><path data-name="Retângulo 10" transform="translate(897 1253)" fill="#fff" stroke="#707070" d="M0 0h22v22H0z"/></clipPath></defs><g transform="translate(-897 -1253)" clip-path="url(#a)"><path d="M902.035 1270.74a9 9 0 0011.93 0c-.293-1.053-2.4-1.74-5.965-1.74s-5.672.687-5.965 1.74zm-1.434-1.615c1.125-1.487 3.769-2.125 7.4-2.125s6.274.638 7.4 2.125a9 9 0 10-14.8 0zm7.4 5.875a11 11 0 1111-11A11 11 0 01908 1275zm-4-13a3.852 3.852 0 014-4 4 4 0 014 4.2c0 3.28-1.782 4.8-4 4.8-2.241 0-4.001-1.573-4.001-5zm2 0c0 2.27.818 3 2 3s2-.7 2-2.8a2.018 2.018 0 00-2-2.2 1.864 1.864 0 00-2.001 2z" fill="#fff" fill-rule="evenodd"/></g></svg>