<svg xmlns="http://www.w3.org/2000/svg" width="50" height="80" viewBox="0 0 248.78 503.415">
  <path id="Icon_ionic-ios-arrow-round-down" data-name="Icon ionic-ios-arrow-round-down" d="M255.264,328.913c-6.478-8.918-17.232-8.918-23.84-.175l-78.9,106.138V30.432c0-12.415-7.515-22.557-16.843-22.557s-16.843,10.142-16.843,22.557V434.877L39.93,328.564c-6.608-8.743-17.232-8.568-23.84.175-6.478,8.918-6.478,23.081.13,32L123.757,504.82h0a19.579,19.579,0,0,0,5.312,4.721,12.569,12.569,0,0,0,6.478,1.749c4.405,0,8.551-2.273,11.79-6.47L254.876,360.737C261.613,352.169,261.743,337.831,255.264,328.913Z" transform="translate(-11.247 -7.875)"/>
</svg>
