<svg width="616" height="635" viewBox="0 0 616 635" fill="none" xmlns="http://www.w3.org/2000/svg">
<path d="M233.409 466C362.091 466 466.409 361.682 466.409 233C466.409 104.318 362.091 0 233.409 0C104.726 0 0.408691 104.318 0.408691 233C0.408691 361.682 104.726 466 233.409 466Z" fill="#F2F2F2"/>
<path d="M253.333 325.681C273.55 314.57 298.712 316.8 320.494 324.397C342.277 331.994 362.016 344.44 383.17 353.646C447.81 381.777 525.718 377.241 586.657 341.798C592.42 355.204 586.237 370.538 579.445 383.454C572.654 396.369 564.913 410.368 567.709 424.69C571.287 443.017 590.502 454.005 598.288 470.978C605.679 487.09 601.712 506.01 596.042 522.805C590.372 539.6 583.014 556.52 583.977 574.22C584.941 591.92 597.8 610.636 615.526 610.65C589.257 614.732 562.47 618.816 536.217 614.633C509.964 610.45 483.848 596.566 471.659 572.94C465.566 561.132 463.217 547.554 456.22 536.258C444.302 517.018 421.429 507.97 399.848 501.15C378.267 494.331 355.172 487.762 339.977 470.988C325.499 455.006 320.913 432.742 313.243 412.587C300.324 378.849 277.886 349.587 248.654 328.358" fill="#F5E5D9"/>
<path d="M276.757 241.944C269.66 238.643 260.947 237.561 253.726 240.628C246.504 243.696 241.581 251.56 243.916 258.519C244.975 261.675 247.386 264.778 246.447 267.964C245.724 270.417 243.201 272.037 240.724 273.188C238.247 274.339 235.537 275.308 233.746 277.25C231.954 279.192 231.581 282.535 233.819 284.041C234.556 284.537 235.477 284.772 236.192 285.295C236.802 285.79 237.241 286.463 237.45 287.22C237.659 287.977 237.626 288.78 237.357 289.518C236.761 291.001 235.776 292.297 234.506 293.268C231.965 295.459 228.608 297.967 229.397 301.077C229.689 301.908 230.178 302.657 230.822 303.258C231.465 303.86 232.245 304.298 233.094 304.535C234.857 305.043 236.686 305.285 238.52 305.251L313.487 307.613C315.961 307.799 318.45 307.66 320.888 307.199C322.074 306.983 323.202 306.525 324.202 305.853C325.202 305.181 326.053 304.31 326.701 303.294C328.137 300.637 327.194 297.364 325.421 294.882C323.649 292.401 321.139 290.444 319.066 288.165C316.993 285.887 315.297 283.043 315.662 280.098C315.955 277.74 317.509 275.703 318.625 273.561C319.741 271.419 320.39 268.743 318.944 266.772C316.907 263.996 312.017 264.247 309.701 261.659C307.954 259.707 308.291 256.896 308.117 254.378C307.699 248.321 303.506 242.602 297.537 239.945C294.502 238.643 291.2 238.08 287.905 238.304C284.609 238.529 281.414 239.534 278.584 241.236L276.757 241.944Z" fill="#2F2E41"/>
<path d="M229.385 622.099L217.644 618.571L225.663 571.604L242.992 576.811L229.385 622.099Z" fill="#A0616A"/>
<path d="M228.96 634.38L191.102 623.005L191.245 622.526C191.827 620.591 192.784 618.79 194.061 617.224C195.339 615.659 196.912 614.36 198.692 613.403C200.471 612.446 202.422 611.848 204.432 611.645C206.442 611.442 208.473 611.636 210.408 612.218L210.409 612.218L233.532 619.165L228.96 634.38Z" fill="#2F2E41"/>
<path d="M340.182 622.496L327.922 622.495L322.09 575.207L340.184 575.208L340.182 622.496Z" fill="#A0616A"/>
<path d="M343.308 634.38L303.778 634.378V633.878C303.778 631.858 304.176 629.857 304.949 627.99C305.722 626.124 306.856 624.427 308.284 622.999C309.713 621.57 311.409 620.436 313.276 619.663C315.143 618.89 317.144 618.492 319.164 618.492H319.165L343.309 618.493L343.308 634.38Z" fill="#2F2E41"/>
<path d="M323.163 586.73C322.094 586.729 321.059 586.348 320.245 585.654C319.431 584.959 318.891 583.998 318.722 582.942L300.519 469.387C300.398 468.635 300.035 467.943 299.486 467.415C298.936 466.888 298.229 466.554 297.473 466.465C296.716 466.376 295.951 466.536 295.294 466.921C294.636 467.306 294.123 467.895 293.83 468.598L246.669 582.134C246.23 583.182 245.411 584.026 244.377 584.498C243.343 584.969 242.17 585.034 241.09 584.678L224.056 578.999C222.995 578.649 222.103 577.916 221.555 576.943C221.006 575.97 220.84 574.827 221.09 573.739L259.739 402.717C259.928 401.893 260.344 401.139 260.94 400.54C261.536 399.94 262.288 399.52 263.111 399.326L314.943 387.293C315.58 387.149 316.241 387.143 316.88 387.275C317.52 387.408 318.124 387.677 318.651 388.063C352.781 412.862 349.898 493.884 343.537 581.861C343.457 582.962 342.976 583.996 342.184 584.765C341.393 585.535 340.346 585.987 339.242 586.035L323.361 586.726C323.295 586.728 323.229 586.73 323.163 586.73Z" fill="#2F2E41"/>
<path d="M279.532 307.032C293.096 307.032 304.093 296.035 304.093 282.471C304.093 268.906 293.096 257.91 279.532 257.91C265.967 257.91 254.971 268.906 254.971 282.471C254.971 296.035 265.967 307.032 279.532 307.032Z" fill="#A0616A"/>
<path d="M280.592 409.768C274.696 409.73 268.882 408.386 263.568 405.833L263.386 405.748L263.313 405.56L241.283 348.484L240.865 338.566C240.724 335.25 241.28 331.941 242.496 328.853C243.712 325.764 245.561 322.964 247.925 320.634C250.288 318.303 253.114 316.493 256.219 315.321C259.324 314.148 262.641 313.639 265.955 313.826L289.343 315.144C295.384 315.487 301.067 318.12 305.236 322.506C309.404 326.893 311.744 332.703 311.779 338.754C312.387 339.921 316.701 349.046 308.246 357.619C307.93 359.571 304.973 379.866 316.133 391.027L316.447 391.34L316.173 391.689C315.995 391.915 301.662 409.765 280.592 409.768Z" fill="#3F3D56"/>
<path d="M313.434 414.073C314.816 413.572 316.071 412.774 317.111 411.736C318.152 410.697 318.952 409.443 319.455 408.061C319.958 406.68 320.152 405.205 320.023 403.741C319.895 402.276 319.447 400.858 318.711 399.585L342.07 372.542L323.655 370.145L304.296 396.193C302.241 397.572 300.762 399.656 300.14 402.052C299.518 404.447 299.797 406.988 300.923 409.192C302.05 411.396 303.945 413.11 306.251 414.01C308.557 414.91 311.112 414.932 313.434 414.073V414.073Z" fill="#A0616A"/>
<path d="M328.038 393.201C327.161 393.201 326.302 392.943 325.569 392.46L314.017 384.883C313.045 384.249 312.357 383.263 312.096 382.133C311.836 381.002 312.022 379.815 312.618 378.819L320.981 364.767C321.434 364.007 321.72 363.16 321.822 362.281C321.924 361.402 321.839 360.512 321.572 359.668C321.305 358.825 320.863 358.047 320.275 357.386C319.686 356.726 318.965 356.197 318.157 355.835L294.13 345.063C291.174 343.721 288.762 341.416 287.289 338.525C285.815 335.634 285.367 332.327 286.017 329.148V329.148C286.467 327.004 287.404 324.992 288.758 323.27C290.111 321.547 291.844 320.16 293.821 319.216C295.798 318.273 297.966 317.798 300.156 317.829C302.346 317.859 304.5 318.395 306.45 319.394L342.902 338.073C345.361 339.333 347.519 341.11 349.227 343.281C350.936 345.453 352.155 347.968 352.802 350.654C353.448 353.341 353.506 356.135 352.972 358.847C352.438 361.558 351.324 364.121 349.707 366.362L331.687 391.331C331.271 391.91 330.723 392.382 330.088 392.707C329.454 393.032 328.751 393.201 328.038 393.201Z" fill="#3F3D56"/>
<path d="M254.405 278.979C262.161 278.356 268.601 270.607 267.794 262.868C267.703 266.058 268.788 269.17 270.843 271.612C272.897 274.055 275.777 275.657 278.936 276.113C282.493 276.505 286.394 275.429 289.491 277.224C292.921 279.212 294.018 284.04 297.592 285.757C301.044 287.416 305.429 285.153 307.135 281.723C308.841 278.294 308.422 274.173 307.292 270.513C305.68 265.294 302.744 260.581 298.771 256.832C294.798 253.083 289.922 250.427 284.618 249.12C279.313 247.814 273.762 247.903 268.502 249.378C263.242 250.853 258.454 253.664 254.602 257.538C251.341 260.819 248.751 265 248.331 269.606C247.911 274.213 250.048 279.212 254.186 281.281L254.405 278.979Z" fill="#2F2E41"/>
<path d="M197.264 210.944C198.558 211.642 199.683 212.614 200.561 213.794C201.438 214.974 202.046 216.331 202.342 217.771C202.638 219.211 202.615 220.698 202.274 222.128C201.933 223.558 201.283 224.896 200.369 226.048L219.527 256.212L200.96 255.894L185.613 227.298C183.781 225.634 182.622 223.356 182.357 220.896C182.092 218.435 182.739 215.962 184.175 213.946C185.611 211.93 187.737 210.511 190.149 209.958C192.561 209.405 195.093 209.756 197.264 210.944V210.944Z" fill="#A0616A"/>
<path d="M212.707 232.424L237.38 290.725L263.249 334.59C264.341 336.441 264.998 338.517 265.17 340.66C265.342 342.803 265.025 344.957 264.243 346.959C263.461 348.961 262.234 350.76 260.655 352.219C259.076 353.677 257.187 354.758 255.129 355.38C251.865 356.348 248.362 356.118 245.254 354.73C242.145 353.342 239.635 350.887 238.178 347.811L188.321 241.278C188.05 240.7 187.905 240.07 187.897 239.431C187.888 238.792 188.016 238.158 188.271 237.573C188.527 236.987 188.904 236.462 189.378 236.034C189.852 235.605 190.412 235.282 191.02 235.087L207.186 229.894C207.492 229.795 207.808 229.729 208.128 229.696C209.083 229.6 210.044 229.813 210.868 230.304C211.692 230.795 212.337 231.538 212.707 232.424Z" fill="#3F3D56"/>
<path d="M444.413 635H0.587071C0.43137 635 0.282046 634.526 0.171949 633.682C0.0618515 632.838 0 631.693 0 630.5C0 629.307 0.0618515 628.162 0.171949 627.318C0.282046 626.474 0.43137 626 0.587071 626H444.413C444.569 626 444.718 626.474 444.828 627.318C444.938 628.162 445 629.307 445 630.5C445 631.693 444.938 632.838 444.828 633.682C444.718 634.526 444.569 635 444.413 635Z" fill="#CCCCCC"/>
<path d="M284.858 108.212V190.212C284.858 190.478 284.753 190.732 284.565 190.92C284.378 191.107 284.124 191.212 283.858 191.212C283.593 191.212 283.339 191.107 283.151 190.92C282.964 190.732 282.858 190.478 282.858 190.212V108.212C282.858 107.947 282.964 107.693 283.151 107.505C283.339 107.318 283.593 107.212 283.858 107.212C284.124 107.212 284.378 107.318 284.565 107.505C284.753 107.693 284.858 107.947 284.858 108.212V108.212Z" fill="#CCCCCC"/>
<path d="M371.684 177.778L343.4 206.062C343.212 206.249 342.958 206.353 342.693 206.353C342.428 206.353 342.175 206.247 341.987 206.06C341.8 205.873 341.695 205.619 341.694 205.354C341.694 205.089 341.799 204.835 341.986 204.648L370.27 176.363C370.363 176.27 370.473 176.196 370.594 176.146C370.716 176.095 370.846 176.069 370.977 176.069C371.109 176.069 371.239 176.094 371.361 176.145C371.482 176.195 371.593 176.269 371.686 176.362C371.779 176.455 371.852 176.565 371.903 176.687C371.953 176.808 371.979 176.938 371.979 177.07C371.978 177.201 371.952 177.332 371.902 177.453C371.851 177.574 371.777 177.685 371.684 177.778V177.778Z" fill="#CCCCCC"/>
<path d="M196.033 177.778L224.317 206.062C224.505 206.249 224.759 206.355 225.024 206.355C225.289 206.355 225.544 206.249 225.731 206.062C225.919 205.874 226.024 205.62 226.024 205.355C226.024 205.089 225.919 204.835 225.731 204.648L197.447 176.363C197.354 176.27 197.244 176.196 197.123 176.146C197.001 176.095 196.871 176.069 196.739 176.069C196.608 176.069 196.478 176.094 196.356 176.145C196.235 176.195 196.124 176.269 196.031 176.362C195.938 176.455 195.864 176.565 195.814 176.687C195.764 176.808 195.738 176.938 195.738 177.07C195.738 177.201 195.765 177.332 195.815 177.453C195.866 177.574 195.94 177.685 196.033 177.778V177.778Z" fill="#CCCCCC"/>
</svg>
