<svg width="679" height="109" viewBox="0 0 679 109" fill="none" xmlns="http://www.w3.org/2000/svg">
<g clip-path="url(#clip0)">
<rect width="679" height="109" fill="white"/>
<path d="M23.6845 68.37L22.6945 81.13H22.8045L27.0945 68.15L52.9445 17H57.6745L61.7445 68.37L60.7545 81.13H60.8645L65.2645 68.15L88.6945 17H97.7145L60.7545 95.21H55.9145L51.7345 43.62L52.3945 31.96H51.9545L47.5545 43.73L21.8145 95.21H16.9745L12.6845 17H21.7045L23.6845 68.37ZM124.344 94L130.944 62.65C131.384 60.45 131.751 58.5067 132.044 56.82C132.337 55.06 132.484 53.52 132.484 52.2C132.484 49.4867 131.934 47.58 130.834 46.48C129.734 45.3067 128.011 44.72 125.664 44.72C123.757 44.72 121.814 45.2333 119.834 46.26C117.854 47.2133 115.947 48.46 114.114 50C112.281 51.54 110.631 53.2633 109.164 55.17C107.771 57.0767 106.707 58.91 105.974 60.67L99.044 94H90.794L107.074 17H115.324L108.504 48.46H108.944C109.897 47.2867 111.034 46.0767 112.354 44.83C113.747 43.5833 115.324 42.4467 117.084 41.42C118.844 40.32 120.751 39.44 122.804 38.78C124.857 38.0467 127.094 37.68 129.514 37.68C133.107 37.68 135.931 38.56 137.984 40.32C140.037 42.0067 141.064 45.1233 141.064 49.67C141.064 52.75 140.587 56.4533 139.634 60.78L132.594 94H124.344ZM190.597 72.33C190.01 75.0433 189.607 77.7933 189.387 80.58C189.167 83.3667 189.057 85.97 189.057 88.39C189.057 89.49 189.057 90.5533 189.057 91.58C189.057 92.5333 189.13 93.4133 189.277 94.22H183.117L181.577 84.65H181.137C180.257 85.8967 179.157 87.18 177.837 88.5C176.59 89.7467 175.197 90.8833 173.657 91.91C172.117 92.9367 170.467 93.7433 168.707 94.33C166.947 94.99 165.077 95.32 163.097 95.32C154.37 95.32 150.007 89.6367 150.007 78.27C150.007 73.5767 150.593 68.81 151.767 63.97C153.013 59.13 154.883 54.7667 157.377 50.88C159.943 46.9933 163.207 43.8033 167.167 41.31C171.2 38.8167 176.04 37.57 181.687 37.57C183.74 37.57 186.233 37.8267 189.167 38.34C192.173 38.78 194.96 39.4033 197.527 40.21L190.597 72.33ZM165.627 88.28C167.387 88.28 169.073 87.8767 170.687 87.07C172.3 86.19 173.803 85.1267 175.197 83.88C176.663 82.6333 177.947 81.3133 179.047 79.92C180.147 78.4533 181.027 77.0967 181.687 75.85L187.847 46.15C185.647 45.1233 182.86 44.61 179.487 44.61C176.113 44.61 173.143 45.6 170.577 47.58C168.01 49.56 165.847 52.1633 164.087 55.39C162.327 58.5433 161.007 62.1367 160.127 66.17C159.247 70.2033 158.807 74.2367 158.807 78.27C158.807 81.0567 159.357 83.44 160.457 85.42C161.557 87.3267 163.28 88.28 165.627 88.28ZM206.47 39H214.61L216.92 28.11L225.72 25.58L222.86 39H237.27L235.62 46.04H221.32L214.39 79.26C214.243 80.14 214.097 80.9467 213.95 81.68C213.877 82.4133 213.84 83.0733 213.84 83.66C213.84 85.42 214.243 86.63 215.05 87.29C215.857 87.95 217.067 88.28 218.68 88.28C220.44 88.28 222.053 88.06 223.52 87.62C224.987 87.18 226.453 86.52 227.92 85.64V92.35C226.38 93.23 224.4 93.9267 221.98 94.44C219.56 95.0267 217.25 95.32 215.05 95.32C208.377 95.32 205.04 92.2767 205.04 86.19C205.04 84.9433 205.223 83.4033 205.59 81.57L213.07 46.04H204.82L206.47 39Z" fill="#A8F26E"/>
<path d="M299.363 25.14H276.593L262.073 94H253.273L267.793 25.14H245.243L246.893 17H301.013L299.363 25.14ZM328.768 94L335.368 62.65C335.808 60.45 336.174 58.5067 336.468 56.82C336.761 55.06 336.908 53.52 336.908 52.2C336.908 49.4867 336.358 47.58 335.258 46.48C334.158 45.3067 332.434 44.72 330.088 44.72C328.181 44.72 326.238 45.2333 324.258 46.26C322.278 47.2133 320.371 48.46 318.538 50C316.704 51.54 315.054 53.2633 313.588 55.17C312.194 57.0767 311.131 58.91 310.398 60.67L303.468 94H295.218L311.498 17H319.748L312.928 48.46H313.368C314.321 47.2867 315.458 46.0767 316.778 44.83C318.171 43.5833 319.748 42.4467 321.508 41.42C323.268 40.32 325.174 39.44 327.228 38.78C329.281 38.0467 331.518 37.68 333.938 37.68C337.531 37.68 340.354 38.56 342.408 40.32C344.461 42.0067 345.488 45.1233 345.488 49.67C345.488 52.75 345.011 56.4533 344.058 60.78L337.018 94H328.768ZM392.27 88.61C389.704 90.81 386.66 92.4967 383.14 93.67C379.694 94.77 376.21 95.32 372.69 95.32C366.824 95.32 362.387 93.6333 359.38 90.26C356.447 86.8867 354.98 82.1933 354.98 76.18C354.98 70.1667 355.824 64.7767 357.51 60.01C359.197 55.2433 361.397 51.21 364.11 47.91C366.897 44.61 370.014 42.08 373.46 40.32C376.98 38.56 380.574 37.68 384.24 37.68C386.88 37.68 389.154 38.0467 391.06 38.78C393.04 39.5133 394.654 40.5033 395.9 41.75C397.147 42.9233 398.064 44.3167 398.65 45.93C399.237 47.47 399.53 49.12 399.53 50.88C399.53 56.0867 397 60.1933 391.94 63.2C386.88 66.1333 379.51 67.6 369.83 67.6C368.95 67.6 368.034 67.6 367.08 67.6C366.127 67.5267 365.137 67.4533 364.11 67.38C363.817 68.7733 363.597 70.0933 363.45 71.34C363.304 72.5867 363.23 73.6867 363.23 74.64C363.23 78.6733 364.147 81.9733 365.98 84.54C367.814 87.0333 370.674 88.28 374.56 88.28C377.787 88.28 380.72 87.7667 383.36 86.74C386.074 85.64 388.164 84.5033 389.63 83.33L392.27 88.61ZM382.92 44.72C378.887 44.72 375.367 46.1133 372.36 48.9C369.427 51.6133 367.19 55.72 365.65 61.22C368.437 61.22 371.334 61.1467 374.34 61C377.347 60.8533 380.06 60.4867 382.48 59.9C384.974 59.24 387.027 58.25 388.64 56.93C390.254 55.5367 391.06 53.63 391.06 51.21C391.06 50.4767 390.914 49.7433 390.62 49.01C390.4 48.2033 389.997 47.5067 389.41 46.92C388.824 46.26 387.98 45.7467 386.88 45.38C385.854 44.94 384.534 44.72 382.92 44.72Z" fill="#F3C95C"/>
<path d="M418.878 17H433.178H462.218L459.358 30.42H430.318L426.248 49.45H452.978L450.228 62.87H423.498L416.898 94H402.598L418.878 17ZM477.867 39L477.977 48.68H478.417C480.03 45.7467 481.973 43.2533 484.247 41.2C486.593 39.1467 489.527 38.12 493.047 38.12C494.587 38.12 496.42 38.4133 498.547 39L495.137 50.77C494.403 50.55 493.707 50.3667 493.047 50.22C492.387 50.0733 491.69 50 490.957 50C487.95 50 485.163 50.99 482.597 52.97C480.103 54.8767 478.197 57.1133 476.877 59.68L469.727 94H456.197L467.857 39H477.867ZM518.432 39L511.282 72.99C510.842 75.19 510.622 77.0233 510.622 78.49C510.622 79.9567 510.915 81.0933 511.502 81.9C512.089 82.7067 513.115 83.11 514.582 83.11C515.829 83.11 517.075 82.8167 518.322 82.23C519.642 81.57 520.889 80.7633 522.062 79.81C523.235 78.7833 524.299 77.6833 525.252 76.51C526.279 75.2633 527.122 74.0533 527.782 72.88L534.822 39H548.352L541.422 72C541.055 73.4667 540.725 75.19 540.432 77.17C540.212 79.15 539.992 81.2033 539.772 83.33C539.552 85.3833 539.405 87.3633 539.332 89.27C539.259 91.1767 539.259 92.7533 539.332 94H528.442L527.892 84.1H527.452C526.425 85.4933 525.215 86.8867 523.822 88.28C522.502 89.6 520.999 90.81 519.312 91.91C517.699 93.01 515.902 93.89 513.922 94.55C512.015 95.21 509.962 95.54 507.762 95.54C504.315 95.54 501.529 94.6967 499.402 93.01C497.275 91.25 496.212 88.06 496.212 83.44C496.212 80.7267 496.579 77.7567 497.312 74.53L504.902 39H518.432ZM562.841 39H576.371L564.711 94H551.181L562.841 39ZM564.931 23.38C564.931 20.96 565.701 19.09 567.241 17.77C568.854 16.45 570.871 15.79 573.291 15.79C575.638 15.79 577.618 16.45 579.231 17.77C580.918 19.09 581.761 20.96 581.761 23.38C581.761 25.7267 580.918 27.5967 579.231 28.99C577.618 30.31 575.638 30.97 573.291 30.97C570.871 30.97 568.854 30.31 567.241 28.99C565.701 27.5967 564.931 25.7267 564.931 23.38ZM583.395 39H590.545L592.745 28.66L607.155 24.59L604.075 39H616.945L614.415 50.33H601.655L596.265 75.19C595.825 77.17 595.605 78.7833 595.605 80.03C595.605 81.6433 595.972 82.7433 596.705 83.33C597.439 83.9167 598.539 84.21 600.005 84.21C601.399 84.21 602.645 84.0633 603.745 83.77C604.919 83.4767 606.129 83 607.375 82.34V92.46C606.569 92.9 605.579 93.34 604.405 93.78C603.305 94.1467 602.095 94.44 600.775 94.66C599.455 94.9533 598.099 95.1733 596.705 95.32C595.312 95.4667 594.029 95.54 592.855 95.54C589.115 95.54 586.219 94.6967 584.165 93.01C582.185 91.25 581.195 88.61 581.195 85.09C581.195 84.3567 581.232 83.5867 581.305 82.78C581.452 81.9733 581.599 81.13 581.745 80.25L588.125 50.33H580.755L583.395 39Z" fill="#EF6F47"/>
<path d="M625.56 71.12C626 67.16 626.88 63.7867 628.2 61C629.593 58.14 631.17 55.6833 632.93 53.63C634.763 51.5033 636.67 49.67 638.65 48.13C640.703 46.5167 642.537 44.9767 644.15 43.51C645.837 42.0433 647.23 40.54 648.33 39C649.43 37.46 649.98 35.6633 649.98 33.61C649.98 31.63 649.393 30.09 648.22 28.99C647.12 27.89 645.103 27.34 642.17 27.34C639.897 27.34 637.403 27.8533 634.69 28.88C631.977 29.8333 629.593 31.0067 627.54 32.4L624.13 22.06C627.137 20.2267 630.4 18.6867 633.92 17.44C637.44 16.12 641.73 15.46 646.79 15.46C652.95 15.46 657.46 16.78 660.32 19.42C663.18 21.9867 664.61 25.47 664.61 29.87C664.61 33.7567 664.023 37.0567 662.85 39.77C661.677 42.41 660.173 44.7567 658.34 46.81C656.507 48.79 654.49 50.5867 652.29 52.2C650.09 53.74 647.963 55.39 645.91 57.15C643.93 58.91 642.133 60.89 640.52 63.09C638.907 65.29 637.807 67.9667 637.22 71.12H625.56ZM620.61 86.74C620.61 84.1733 621.417 82.1567 623.03 80.69C624.643 79.15 626.77 78.38 629.41 78.38C632.123 78.38 634.287 79.15 635.9 80.69C637.513 82.1567 638.32 84.1733 638.32 86.74C638.32 89.3067 637.513 91.36 635.9 92.9C634.287 94.44 632.123 95.21 629.41 95.21C626.77 95.21 624.643 94.44 623.03 92.9C621.417 91.36 620.61 89.3067 620.61 86.74Z" fill="#FB6738"/>
</g>
<defs>
<clipPath id="clip0">
<rect width="679" height="109" fill="white"/>
</clipPath>
</defs>
</svg>
