<svg xmlns="http://www.w3.org/2000/svg" xmlns:xlink="http://www.w3.org/1999/xlink" width="22" height="22" viewBox="0 0 22 22">
  <defs>
    <clipPath id="clip-path">
      <rect id="Retângulo_6" data-name="Retângulo 6" width="22" height="22" transform="translate(1441 787)" fill="#fff" stroke="#707070" stroke-width="1"/>
    </clipPath>
  </defs>
  <g id="cartDark" transform="translate(-1441 -787)" clip-path="url(#clip-path)">
    <path id="cart" d="M53.723,52.079a2.4,2.4,0,0,1,.56-.062l15.312,1.093c1.371.024,2.714,1.162,2.052,2.642-.129.287-.712,1.459-1.639,3.3l-1.154,2.293-.376.743-.115.228a2.877,2.877,0,0,1-1.811,1.7l-.162.052H53.164a1.2,1.2,0,0,0-1.151,1.1l0,1.03a1.23,1.23,0,0,0,1.1,1.162H53.3a3.289,3.289,0,0,1,6.2,0h2.565a3.289,3.289,0,1,1,0,2.192H59.5a3.289,3.289,0,0,1-6.2,0h-.249a3.447,3.447,0,0,1-3.226-3.287V65.111A3.42,3.42,0,0,1,53.1,61.878L52.024,54.36l-.011-.155a3.107,3.107,0,0,0-.775-1.965,2.768,2.768,0,0,0-1.417-.227V49.821a4.044,4.044,0,0,1,2.967.869A4.766,4.766,0,0,1,53.723,52.079Zm1.7,9.8H66.009a.685.685,0,0,0,.318-.37l.054-.124.142-.282.374-.742c.388-.767.775-1.538,1.137-2.258l.016-.032c.634-1.26,1.118-2.232,1.383-2.774L54.216,54.205l1.074,7.518a.186.186,0,0,0,.135.153Zm9.741,7.672a1.1,1.1,0,1,0-1.1-1.1A1.1,1.1,0,0,0,65.166,69.55Zm-8.768,0a1.1,1.1,0,1,0-1.1-1.1A1.1,1.1,0,0,0,56.4,69.55Z" transform="translate(1391.179 737.217)" fill="#fff" fill-rule="evenodd"/>
  </g>
</svg>
