<svg xmlns="http://www.w3.org/2000/svg" xmlns:xlink="http://www.w3.org/1999/xlink" width="22" height="22" viewBox="0 0 22 22">
  <defs>
    <clipPath id="clip-path">
      <rect id="Retângulo_22" data-name="Retângulo 22" width="22" height="22" transform="translate(275 953)" fill="#fff" stroke="#707070" stroke-width="1"/>
    </clipPath>
  </defs>
  <g id="insta" transform="translate(-275 -953)" clip-path="url(#clip-path)">
    <g id="instagram-esbocado" transform="translate(275 953)">
      <path id="Caminho_56" data-name="Caminho 56" d="M13.105,11A2.105,2.105,0,1,1,11,8.895,2.105,2.105,0,0,1,13.105,11Zm0,0" fill="#272727"/>
      <path id="Caminho_57" data-name="Caminho 57" d="M15.924,7.275a2.092,2.092,0,0,0-1.2-1.2,3.5,3.5,0,0,0-1.173-.217c-.666-.03-.866-.037-2.552-.037s-1.886.006-2.552.037a3.5,3.5,0,0,0-1.173.218,2.093,2.093,0,0,0-1.2,1.2,3.5,3.5,0,0,0-.217,1.173c-.03.666-.037.866-.037,2.552s.007,1.886.037,2.552a3.5,3.5,0,0,0,.217,1.173,2.092,2.092,0,0,0,1.2,1.2,3.49,3.49,0,0,0,1.173.218c.666.03.866.037,2.552.037s1.887-.006,2.552-.037a3.49,3.49,0,0,0,1.173-.218,2.092,2.092,0,0,0,1.2-1.2,3.5,3.5,0,0,0,.218-1.173c.03-.666.037-.866.037-2.552s-.006-1.886-.037-2.552a3.49,3.49,0,0,0-.218-1.173ZM11,14.243A3.243,3.243,0,1,1,14.243,11,3.243,3.243,0,0,1,11,14.243Zm3.372-5.857a.758.758,0,1,1,.758-.758A.758.758,0,0,1,14.372,8.386Zm0,0" fill="#272727"/>
      <path id="Caminho_58" data-name="Caminho 58" d="M11,0A11,11,0,1,0,22,11,11,11,0,0,0,11,0Zm6.278,13.6a4.634,4.634,0,0,1-.294,1.533,3.23,3.23,0,0,1-1.847,1.847,4.637,4.637,0,0,1-1.533.294c-.674.031-.889.038-2.6.038s-1.931-.007-2.6-.038a4.637,4.637,0,0,1-1.533-.294,3.23,3.23,0,0,1-1.847-1.847A4.633,4.633,0,0,1,4.722,13.6c-.031-.674-.038-.889-.038-2.6s.007-1.931.038-2.6a4.635,4.635,0,0,1,.293-1.533A3.232,3.232,0,0,1,6.863,5.015,4.639,4.639,0,0,1,8.4,4.722c.674-.031.889-.038,2.6-.038s1.931.007,2.6.038a4.639,4.639,0,0,1,1.533.293,3.231,3.231,0,0,1,1.847,1.847A4.634,4.634,0,0,1,17.278,8.4c.031.674.038.889.038,2.6S17.309,12.931,17.278,13.6Zm0,0" fill="#272727"/>
    </g>
  </g>
</svg>
