<?xml version="1.0" encoding="UTF-8"?>
<svg xmlns="http://www.w3.org/2000/svg" xmlns:xlink="http://www.w3.org/1999/xlink" width="55pt" height="85pt" viewBox="0 0 55 85" version="1.1">
<g id="surface1">
<path style=" stroke:none;fill-rule:nonzero;fill:rgb(13.699341%,12.199402%,12.5%);fill-opacity:1;" d="M 54.496094 34.480469 L 44.671875 15.347656 L 39.867188 23.828125 L 27.746094 0.226563 L 15.628906 23.828125 L 10.824219 15.347656 L 1 34.480469 L 54.496094 34.480469 "/>
<path style=" stroke:none;fill-rule:nonzero;fill:rgb(13.699341%,12.199402%,12.5%);fill-opacity:1;" d="M 54.496094 50.289063 L 44.671875 69.421875 L 39.867188 60.945313 L 27.746094 84.546875 L 15.628906 60.945313 L 10.824219 69.421875 L 1 50.289063 L 54.496094 50.289063 "/>
<path style=" stroke:none;fill-rule:nonzero;fill:rgb(13.699341%,12.199402%,12.5%);fill-opacity:1;" d="M 1.925781 46.492188 L 1.925781 37.671875 L 3.09375 37.671875 L 3.09375 46.492188 Z M 12.738281 46.492188 L 16.128906 37.671875 L 17.382813 37.671875 L 20.992188 46.492188 L 19.664063 46.492188 L 18.636719 43.820313 L 14.945313 43.820313 L 13.980469 46.492188 Z M 15.28125 42.867188 L 18.277344 42.867188 L 17.351563 40.425781 C 17.074219 39.6875 16.863281 39.078125 16.726563 38.597656 C 16.617188 39.164063 16.457031 39.726563 16.253906 40.285156 Z M 29.515625 46.492188 L 32.902344 37.671875 L 34.15625 37.671875 L 37.769531 46.492188 L 36.4375 46.492188 L 35.40625 43.820313 L 31.71875 43.820313 L 30.753906 46.492188 Z M 32.054688 42.867188 L 35.046875 42.867188 L 34.128906 40.425781 C 33.847656 39.6875 33.640625 39.078125 33.503906 38.597656 C 33.390625 39.164063 33.230469 39.726563 33.027344 40.285156 Z M 53.550781 43.398438 L 54.71875 43.695313 C 54.472656 44.652344 54.03125 45.382813 53.398438 45.886719 C 52.761719 46.390625 51.984375 46.640625 51.066406 46.640625 C 50.113281 46.640625 49.34375 46.449219 48.746094 46.0625 C 48.152344 45.675781 47.699219 45.113281 47.390625 44.382813 C 47.078125 43.644531 46.921875 42.855469 46.921875 42.015625 C 46.921875 41.097656 47.097656 40.296875 47.449219 39.613281 C 47.796875 38.929688 48.296875 38.410156 48.945313 38.054688 C 49.59375 37.699219 50.304688 37.523438 51.085938 37.523438 C 51.96875 37.523438 52.710938 37.746094 53.308594 38.195313 C 53.910156 38.644531 54.332031 39.277344 54.566406 40.09375 L 53.417969 40.363281 C 53.214844 39.71875 52.917969 39.253906 52.527344 38.960938 C 52.140625 38.664063 51.652344 38.519531 51.058594 38.519531 C 50.382813 38.519531 49.816406 38.683594 49.359375 39.007813 C 48.90625 39.335938 48.585938 39.769531 48.402344 40.316406 C 48.21875 40.863281 48.125 41.429688 48.125 42.011719 C 48.125 42.761719 48.234375 43.414063 48.453125 43.972656 C 48.671875 44.53125 49.011719 44.953125 49.472656 45.226563 C 49.933594 45.507813 50.433594 45.644531 50.96875 45.644531 C 51.621094 45.644531 52.175781 45.457031 52.628906 45.078125 C 53.085938 44.703125 53.390625 44.140625 53.550781 43.398438 "/>
</g>
</svg>
