<svg width="512" height="512" viewBox="0 0 512 512" fill="none" xmlns="http://www.w3.org/2000/svg">
<rect x="32" y="34" width="444" height="451" fill="#4267B2"/>
<path d="M452 0H60C26.916 0 0 26.916 0 60V452C0 485.084 26.916 512 60 512H452C485.084 512 512 485.084 512 452V60C512 26.916 485.084 0 452 0ZM472 452C472 463.028 463.028 472 452 472H338V309H399.79L410 247H338V204C338 187.025 351.025 174 368 174H409V112H368C317.077 112 276.022 153.25 276.022 204.174V247H216V309H276.022V472H60C48.972 472 40 463.028 40 452V60C40 48.972 48.972 40 60 40H452C463.028 40 472 48.972 472 60V452Z" fill="white"/>
</svg>
