<svg width="512" height="512" viewBox="0 0 512 512" fill="none" xmlns="http://www.w3.org/2000/svg">
<path d="M43.5 75.5921C43.5 62.762 53.2122 52.0147 65.9767 50.7198L248.525 32.2003C249.84 32.067 251.163 32.038 252.482 32.1138L438.343 42.7853C450.55 43.4861 460.459 52.9133 461.767 65.0701L481.262 246.289C481.42 247.76 481.448 249.242 481.344 250.718L468.417 434.369C467.59 446.115 458.679 455.692 447.023 457.361L261.007 483.998C258.68 484.331 256.319 484.334 253.992 484.008L65.0293 457.518C52.6839 455.787 43.5 445.226 43.5 432.76V75.5921Z" fill="url(#paint0_linear)"/>
<path d="M352 0H160C71.648 0 0 71.648 0 160V352C0 440.352 71.648 512 160 512H352C440.352 512 512 440.352 512 352V160C512 71.648 440.352 0 352 0ZM464 352C464 413.76 413.76 464 352 464H160C98.24 464 48 413.76 48 352V160C48 98.24 98.24 48 160 48H352C413.76 48 464 98.24 464 160V352Z" fill="white"/>
<path d="M256 128C185.312 128 128 185.312 128 256C128 326.688 185.312 384 256 384C326.688 384 384 326.688 384 256C384 185.312 326.688 128 256 128ZM256 336C211.904 336 176 300.096 176 256C176 211.872 211.904 176 256 176C300.096 176 336 211.872 336 256C336 300.096 300.096 336 256 336Z" fill="white"/>
<path d="M393.6 135.456C403.02 135.456 410.656 127.82 410.656 118.4C410.656 108.98 403.02 101.344 393.6 101.344C384.18 101.344 376.544 108.98 376.544 118.4C376.544 127.82 384.18 135.456 393.6 135.456Z" fill="white"/>
<defs>
<linearGradient id="paint0_linear" x1="262.5" y1="44" x2="262.5" y2="484.5" gradientUnits="userSpaceOnUse">
<stop stop-color="#FC7023"/>
<stop offset="0.53125" stop-color="#F6146C"/>
<stop offset="1" stop-color="#A923D8"/>
</linearGradient>
</defs>
</svg>
