<svg width="512" height="512" viewBox="0 0 512 512" fill="none" xmlns="http://www.w3.org/2000/svg">
<path d="M256 512C195.385 512 136.594 490.436 90.457 451.279C79.624 442.091 69.462 431.904 60.256 421.004C21.397 374.944 0 316.347 0 256C0 187.619 26.628 123.332 74.98 74.98C123.332 26.628 187.619 0 256 0C324.381 0 388.668 26.628 437.02 74.98C485.372 123.332 512 187.619 512 256C512 316.348 490.603 374.945 451.749 420.998C442.538 431.904 432.376 442.091 421.54 451.282C375.406 490.436 316.615 512 256 512ZM256 32C132.486 32 32 132.486 32 256C32 308.805 50.719 360.074 84.709 400.363C92.769 409.906 101.67 418.829 111.16 426.879C112.486 428.004 113.824 429.113 115.174 430.205C154.905 462.354 204.703 480 256 480C307.298 480 357.097 462.353 396.826 430.205C398.175 429.114 399.512 428.006 400.837 426.881C410.33 418.829 419.231 409.905 427.296 400.356C461.281 360.075 480 308.806 480 256C480 132.486 379.514 32 256 32Z" fill="black"/>
<path d="M256 256C203.065 256 160 212.935 160 160C160 107.065 203.065 64 256 64C308.935 64 352 107.065 352 160C352 212.935 308.935 256 256 256ZM256 96C220.71 96 192 124.71 192 160C192 195.29 220.71 224 256 224C291.29 224 320 195.29 320 160C320 124.71 291.29 96 256 96Z" fill="black"/>
<path d="M411.202 455.084C409.912 455.084 408.602 454.927 407.294 454.599C398.724 452.448 393.52 443.756 395.671 435.185C396.086 433.533 396.471 431.872 396.826 430.205C398.933 420.322 400 410.185 400 400C400 321.715 336.354 257.134 258.107 256.01L256 256L253.893 256.01C175.646 257.134 112 321.715 112 400C112 410.185 113.067 420.323 115.174 430.205C115.529 431.873 115.914 433.533 116.329 435.185C118.48 443.756 113.276 452.448 104.706 454.599C96.136 456.75 87.443 451.547 85.292 442.976C81.78 428.987 80 414.528 80 400C80 353.422 98.017 309.517 130.732 276.37C163.415 243.256 207.017 224.662 253.506 224.012C253.581 224.011 253.655 224.011 253.73 224.011L256 224L258.27 224.01C258.345 224.01 258.419 224.01 258.494 224.011C304.983 224.66 348.585 243.255 381.268 276.369C413.983 309.517 432 353.422 432 400C432 414.528 430.22 428.987 426.708 442.976C424.885 450.238 418.365 455.083 411.202 455.084Z" fill="black"/>
<path d="M115.174 430.205C154.905 462.354 204.703 480 256 480C307.298 480 357.097 462.353 396.826 430.205C398.933 420.322 400 410.185 400 400C400 321.715 336.354 257.134 258.107 256.01L256 256L253.893 256.01C175.646 257.134 112 321.715 112 400C112 410.185 113.067 420.323 115.174 430.205Z" fill="black"/>
<path d="M256 96C220.71 96 192 124.71 192 160C192 195.29 220.71 224 256 224C291.29 224 320 195.29 320 160C320 124.71 291.29 96 256 96Z" fill="black"/>
</svg>
